<svg fill="none" height="509" viewBox="0 0 921 509" width="921" xmlns="http://www.w3.org/2000/svg"><path d="m582.653 43.6163c47.05-53.03616 117.514-45.55655 154.628-39.08073 138.136 24.03823 183.313 149.49743 183.625 259.05543.156 49.748-7.74 105.249-31.906 147.989-38.819 68.76-75.996 97-177.5 97h-548.297c-232.3886 0-187.4889-159-45.989-175.5 148.57-17.324 86.388-104.406 168.888-139 131.981-55.342 112.529 39.731 206.902-28.628 45.403-32.832 39.036-64.784 89.649-121.8357z" fill="#262626"/><path clip-rule="evenodd" d="m316.954 176.689c-.024-.003-.047-.006-.071-.01l-104.695 292.398 317.441.026-98.855-282.373c-.015.001-.029.001-.043.002l-10.298-28.755h-96.591z" fill="#313130" fill-rule="evenodd"/><path d="m376.105 157.977h-7.401v303.769h7.401z" fill="#8a8a8a"/><path clip-rule="evenodd" d="m402.431 459.287h-60.379c-1.307 0-2.561.517-3.486 1.438-.924.92-1.444 2.169-1.444 3.471v4.909h70.239v-4.909c0-1.302-.519-2.551-1.444-3.471-.924-.921-2.178-1.438-3.486-1.438z" fill="#8a8a8a" fill-rule="evenodd"/><path d="m425.402 148.161h-106.009l19.069-74.6541c1.266-3.979 3.771-7.4534 7.152-9.9195 3.382-2.4661 7.465-3.7958 11.656-3.7964h30.268c4.191-.0007 8.272 1.3287 11.652 3.7952s5.882 5.9416 7.143 9.9207z" fill="#f0d37f"/><path d="m411.237 150.206h-77.679l13.97-54.7082c.927-2.9172 2.763-5.4644 5.242-7.2718 2.48-1.8073 5.473-2.7807 8.546-2.7787h22.112c3.071.0008 6.061.9754 8.538 2.7826 2.476 1.8071 4.311 4.3528 5.236 7.2679z" fill="#ffeca1"/><path d="m372.398 132.075c-1.839-.003-3.654-.424-5.305-1.23s-3.096-1.977-4.225-3.423-1.912-3.13-2.289-4.922c-.377-1.793-.339-3.647.112-5.423l1.77-6.877c.367-1.167 1.099-2.186 2.088-2.911.99-.724 2.185-1.115 3.414-1.117h8.818c1.231-.001 2.429.389 3.421 1.114.992.724 1.726 1.745 2.094 2.914l1.757 6.877c.452 1.772.493 3.623.12 5.412-.373 1.79-1.151 3.472-2.274 4.917-1.124 1.446-2.563 2.618-4.209 3.427-1.647.809-3.456 1.234-5.292 1.242z" fill="#fffae3"/><path d="m319.393 148.16h106.009v7.227c0 .687-.274 1.346-.762 1.832s-1.15.759-1.84.759h-100.805c-.69 0-1.352-.273-1.84-.759-.487-.486-.762-1.145-.762-1.832z" fill="#baa462"/><path d="m299.818 375.01h5.619c.823 0 1.638.161 2.399.475s1.452.774 2.034 1.353c.582.58 1.044 1.268 1.359 2.026.315.757.477 1.569.477 2.388v7.241c0 1.655-.66 3.243-1.836 4.414s-2.771 1.828-4.433 1.828h-5.619z" fill="#3a739c"/><path clip-rule="evenodd" d="m295.85 369.09v23.663c.002 1.037-.201 2.064-.599 3.022-.397.959-.98 1.83-1.716 2.563-.736.734-1.61 1.316-2.571 1.714-.962.397-1.994.601-3.035.601h7.921c1.042 0 2.073-.204 3.035-.601.962-.398 1.836-.98 2.571-1.714.736-.733 1.319-1.604 1.716-2.563.398-.958.602-1.985.6-3.022v-23.663z" fill="#3a739c" fill-rule="evenodd"/><path clip-rule="evenodd" d="m295.85 392.753v-23.663h-23.764v23.663c0 2.093.834 4.1 2.32 5.582 1.485 1.481 3.5 2.315 5.602 2.318h7.921c1.041 0 2.073-.204 3.034-.601.962-.398 1.836-.98 2.572-1.714.735-.733 1.319-1.604 1.716-2.563.397-.958.601-1.985.599-3.022z" fill="#335873" fill-rule="evenodd"/><path d="m321.514 409.67h-145.395v7.888h145.395z" fill="#202022"/><path clip-rule="evenodd" d="m184.041 471.564h-7.922v-70.923h14.737z" fill="#2c415c" fill-rule="evenodd"/><path d="m208.858 471.564h7.922v-70.923h-16.064z" fill="#202022"/><path clip-rule="evenodd" d="m288.801 471.564h-7.922v-70.923h15.986z" fill="#2c415c" fill-rule="evenodd"/><path d="m313.592 471.564h7.921v-70.923h-14.789z" fill="#202022"/><path d="m321.514 400.369h-145.395v9.818h145.395z" fill="#2c415c"/><path d="m332.921 303.18-.572-2.189c-.655-2.488-2.117-4.69-4.159-6.264-2.042-1.575-4.549-2.432-7.132-2.44h-.351c-6.803.194-10.601 7.175-7.362 13.664 1.062 1.972 1.355 4.264.822 6.438-.533 2.173-1.854 4.073-3.71 5.335l-12.057 8.017c-2.199 1.501-4.017 3.489-5.313 5.809-1.295 2.319-2.032 4.906-2.153 7.557-.136 3.592.652 7.159 2.289 10.362l1.548 3.173c1.118 2.318 4.175 1.658 4.539-.984l.69-4.961c.256-3.993 1.933-7.765 4.729-10.639s6.528-4.663 10.528-5.045c10.406-1.14 18.392-9.403 18.639-20.723.021-2.405-.308-4.799-.975-7.11z" fill="#fff" opacity=".1"/><path d="m744.611 469.104h-592.685c-19.836 0-35.926 2.758-35.926 6.139 0 3.38 16.09 6.139 35.926 6.139h592.685c19.836 0 35.926-2.746 35.926-6.139 0-3.394-16.142-6.139-35.926-6.139z" fill="#202022"/><g clip-rule="evenodd" fill-rule="evenodd"><path d="m707.996 475.579h4.67l-11.421-42.741h-21.878z" fill="#202022"/><path d="m573.528 430.857h17.976l-29.917 44.723h-5.073l11.98-44.723z" fill="#202022"/><path d="m442.546 336.854 161.211-43.077c12.903-3.212 22.008-10.465 29.409-19.609 1.568-1.941 3.01-3.978 4.318-6.101 3.705-5.478 6.413-11.563 8-17.976l13.228-49.126c.228-.954.528-1.889.897-2.798 0-.168.118-.324.183-.479.378-.89.812-1.755 1.3-2.59l.117-.182c1.553-2.699 3.633-5.061 6.117-6.947s5.323-3.259 8.347-4.036c1.911-.528 3.884-.803 5.867-.816h8.714c2.671-.003 5.307.601 7.709 1.766 2.401 1.164 4.503 2.859 6.147 4.954 1.645 2.096 2.787 4.537 3.341 7.139.554 2.601.505 5.294-.144 7.874l-48.738 193.201c-3.106 12.695-10.406 23.984-20.729 32.052-10.322 8.068-23.068 12.448-36.191 12.437h-156.086c-3.105 0-6.082-1.228-8.277-3.414-2.196-2.186-3.429-5.151-3.429-8.243v-82.709c-.013-2.578.833-5.088 2.405-7.136s3.782-3.52 6.284-4.184z" fill="#2c415c"/><path d="m419.302 338.214 161.016-42.546c15.24-3.869 28.446-13.335 36.966-26.499 2.104-3.16 3.706-6.624 4.748-10.271l16.076-58.076c1.266-5.049 4.193-9.531 8.313-12.732 4.12-3.202 9.198-4.938 14.424-4.934h26.613c-1.979.012-3.947.286-5.853.816-4.104 1.052-7.844 3.192-10.822 6.194s-5.082 6.752-6.088 10.851l-17.495 58.658c-1.646 5.355-4.397 10.309-8.077 14.545-7.401 9.144-16.493 16.397-29.409 19.609l-161.211 43.09c-2.486.666-4.682 2.13-6.248 4.165s-2.415 4.527-2.415 7.09v82.748c0 3.092 1.233 6.057 3.429 8.243 2.195 2.186 5.173 3.414 8.277 3.414h-22.112c-5.05 0-9.894-1.998-13.465-5.554s-5.577-8.378-5.577-13.407v-74.084c0-2.607.877-5.139 2.492-7.191 1.616-2.052 3.875-3.506 6.418-4.129z" fill="#335873"/><path d="m764.968 189.916h-73.751c-5.222.001-10.294 1.74-14.409 4.941s-7.037 7.68-8.302 12.725l-48.126 186.323h114.229l47.138-182.269c.636-2.554.685-5.218.145-7.794-.541-2.576-1.658-4.997-3.267-7.084-1.61-2.087-3.672-3.786-6.032-4.97-2.359-1.185-4.957-1.825-7.599-1.872z" fill="#335873"/><path d="m791.854 210.756-47.36 183.15h-155.852l17.807-71.092 60.731-15.115 1.079-.285c5.609-1.545 10.895-4.076 15.609-7.473 11.889-8.652 22.827-21.707 26.131-34.892l16.181-58.451c1.253-5.057 4.17-9.55 8.286-12.764 4.116-3.213 9.194-4.962 14.425-4.967h22.879v.337c1.126-.194 2.266-.298 3.408-.311 2.648.051 5.249.697 7.61 1.89s4.421 2.903 6.024 5.001c1.604 2.097 2.711 4.529 3.237 7.113.527 2.584.46 5.252-.195 7.807z" fill="#2c415c"/><path d="m440.62 434.744h105.619c4.381 0 8.582-1.733 11.68-4.818 3.098-3.084 4.839-7.268 4.839-11.631v-27.38c0-2.16-.428-4.299-1.258-6.294-.83-1.996-2.047-3.809-3.581-5.337-1.534-1.527-3.355-2.738-5.359-3.565s-4.152-1.252-6.321-1.252h-105.619c-4.379.003-8.577 1.738-11.672 4.822s-4.834 7.266-4.834 11.626v27.393c.003 4.358 1.744 8.537 4.838 11.618 3.095 3.082 7.292 4.815 11.668 4.818z" fill="#2c415c"/><path d="m439.736 370.566c-3.105 0-6.082 1.229-8.278 3.415-2.195 2.186-3.429 5.15-3.429 8.242v34.97c0 3.091 1.234 6.056 3.429 8.242 2.196 2.186 5.173 3.414 8.278 3.414h95.733v-58.283z" fill="#335873"/><path d="m476.833 428.902h9.768l23.413-58.283h-9.756z" fill="#2c415c"/><path d="m556.892 428.902h-29.227l5.853-58.283h23.413z" fill="#2c415c"/><path d="m661.756 237.619c3.523.695 6.873 2.075 9.86 4.061s5.55 4.539 7.545 7.513 3.381 6.31 4.079 9.818.695 7.118-.009 10.625l-11.811 59.111c-.707 3.542-2.798 6.658-5.813 8.665-3.015 2.006-6.707 2.738-10.264 2.033-3.557-.704-6.687-2.786-8.701-5.788-2.015-3.002-2.75-6.678-2.043-10.22z" fill="#2c415c"/><path d="m631.475 288.44c3.015-2.006 5.106-5.123 5.813-8.664.708-3.541-.027-7.217-2.041-10.22-2.015-3.002-5.145-5.084-8.701-5.789-3.557-.704-7.249.027-10.264 2.033l-61.706 41.057c-2.925 2.043-4.932 5.145-5.589 8.642s.087 7.112 2.073 10.07c1.986 2.957 5.056 5.023 8.553 5.755 3.496.732 7.142.071 10.156-1.84z" fill="#4e6b44"/><path d="m649.932 228.617h-30.918c-3.104 0-6.178.617-9.039 1.816s-5.453 2.955-7.623 5.165c2.076-2.069 4.519-3.738 7.206-4.921l-3.558 6.785-10.391 13.618c-1.273 1.531-2.24 4.047-2.609 6-.368 1.953-.628 6.614 0 8.5l2.609 10-5.51 50.266h54.63l16.715-83.267c.343-1.693.303-3.441-.115-5.117s-1.205-3.239-2.305-4.575c-1.099-1.336-2.482-2.412-4.05-3.15-1.568-.739-3.281-1.121-5.016-1.12z" fill="#4e6b44"/><path d="m596.056 263.987c-.632-1.886-.769-3.903-.398-5.857s1.238-3.781 2.518-5.307l11.434-14.247v-7.875c-2.685 1.187-5.128 2.855-7.206 4.922l-.182.168c-.71.698-1.366 1.447-1.964 2.241l-11.889 14.778c-.325.39-.625.801-.898 1.23-.259.418-.494.85-.702 1.295-1.288 2.705-1.47 5.803-.507 8.639l4.123 11.657-10.068 50.226h9.782l10.106-50.252z" fill="#678c5a"/><path d="m619.378 331.674c3.087 0 6.105-.912 8.672-2.619 2.567-1.708 4.567-4.136 5.748-6.975 1.182-2.84 1.491-5.965.889-8.98s-2.089-5.784-4.272-7.958-4.964-3.654-7.992-4.254c-3.028-.599-6.166-.291-9.018.885s-5.29 3.168-7.005 5.724-2.63 5.561-2.63 8.635c0 4.122 1.644 8.075 4.571 10.99s6.897 4.552 11.037 4.552z" fill="#4e6b44"/><path d="m623.527 370.568 18.653-46.627h-1.951l-3.903 9.714h-137.486c-2.44.185-4.783 1.032-6.774 2.45s-3.553 3.353-4.516 5.593l-43.392 108.639h24.87l32.362-79.731z" fill="#23252b"/></g><path d="m504.421 323.902h-1.952c-9.768 0-20.694 7.771-24.57 17.498l-43.496 108.898h9.755l43.392-108.6c.964-2.24 2.526-4.175 4.516-5.593 1.991-1.418 4.334-2.265 6.775-2.45h137.512l3.902-9.714z" fill="#282d3b"/><path d="m400.077 473.637h67.637c.345 0 .676-.136.92-.379s.381-.572.381-.916v-22.018h-34.612l-21.397 9.235c-8.246 3.691-13.696 4.559-14.23 12.705-.01.177.016.354.076.52.061.166.155.318.277.447.122.128.269.231.432.301s.338.106.516.105z" fill="#453a29"/><path d="m438.773 473.635h75.442c.345 0 .676-.136.92-.379s.38-.572.38-.916v-22.018l-32.765-3.756-31.074 12.952c-8.233 3.691-13.683 4.559-14.23 12.706-.016.182.006.365.066.538.059.172.155.33.28.464.125.133.277.238.447.309.169.071.351.105.534.1z" fill="#695532"/><path clip-rule="evenodd" d="m552.911 341.398-68.847 103.187c-.158.24-.261.512-.301.796-.041.284-.018.573.066.848.085.274.229.527.422.74.194.212.432.38.697.491l5.854 2.448 24.935 10.284 68.561-102.733c1.564-2.341 2.539-5.023 2.842-7.818.303-2.796-.074-5.623-1.1-8.243z" fill="#23252b" fill-rule="evenodd"/><path d="m575.947 333.616h4.15l-.547-.427c-1.919-1.279-4.073-2.168-6.338-2.617-2.265-.45-4.597-.45-6.862-.001-2.265.448-4.419 1.337-6.339 2.615-1.92 1.279-3.568 2.921-4.849 4.834l-72.398 108.587 8.142 3.367 72.073-108.004c3.07-4.611 7.102-8.354 12.968-8.354z" fill="#282d3b"/><path clip-rule="evenodd" d="m584.232 320.004c0-7.525-8.753-13.6-19.51-13.6s-19.511 6.075-19.511 13.6z" fill="#ffc680" fill-rule="evenodd"/><path clip-rule="evenodd" d="m644.04 315.795 14.191-70.678c.453-2.182 1.449-4.216 2.897-5.915 1.447-1.7 3.3-3.01 5.388-3.811-.739-.301-1.506-.531-2.289-.687-3.475-.677-7.079.038-10.028 1.99s-5.005 4.984-5.724 8.436l-14.152 70.665c-.458 2.343-.275 4.766.529 7.014.805 2.249 2.202 4.241 4.045 5.768s4.064 2.532 6.431 2.91c2.367.379 4.793.117 7.024-.759-2.922-1.127-5.355-3.238-6.873-5.967-1.519-2.729-2.028-5.902-1.439-8.966z" fill="#678c5a" fill-rule="evenodd"/><path clip-rule="evenodd" d="m660.585 320.975 14.191-70.691c.936-1.175 1.571-2.559 1.85-4.033s.195-2.993-.247-4.427-1.228-2.739-2.289-3.804c-1.062-1.064-2.367-1.855-3.804-2.305s-2.962-.545-4.444-.277-2.877.89-4.063 1.814c-1.187.924-2.13 2.122-2.748 3.49-.618 1.367-.893 2.864-.801 4.361l-14.19 70.691c-.937 1.175-1.572 2.559-1.851 4.033s-.194 2.993.247 4.427c.442 1.434 1.228 2.739 2.289 3.804 1.062 1.064 2.367 1.855 3.804 2.305s2.962.545 4.444.277c1.482-.267 2.877-.89 4.064-1.814 1.186-.924 2.129-2.122 2.747-3.49.618-1.367.893-2.864.801-4.361z" fill="#4e6b44" fill-rule="evenodd"/><path clip-rule="evenodd" d="m627.195 320.004c0-7.525-8.753-13.6-19.51-13.6s-19.511 6.075-19.511 13.6z" fill="#ffc680" fill-rule="evenodd"/><path clip-rule="evenodd" d="m550.05 257.785h-60.198c-.605 0-1.203.141-1.745.41-.541.27-1.013.662-1.376 1.144-.364.483-.61 1.043-.718 1.637-.108.593-.076 1.203.093 1.783l17.235 58.282c.235.812.728 1.525 1.407 2.032.678.508 1.504.781 2.352.779h60.184c.61.004 1.212-.133 1.758-.402.547-.269 1.022-.661 1.389-1.146.366-.485.614-1.048.723-1.645.108-.597.075-1.212-.098-1.794l-17.26-58.282c-.237-.807-.73-1.516-1.405-2.021-.675-.504-1.497-.777-2.341-.777z" fill="#606060" fill-rule="evenodd"/><path clip-rule="evenodd" d="m556.892 316.119h50.728c.517 0 1.014.205 1.379.569.366.364.572.859.572 1.374v3.885c0 .516-.206 1.01-.572 1.374-.365.365-.862.569-1.379.569h-50.728z" fill="#606060" fill-rule="evenodd"/><path clip-rule="evenodd" d="m577.274 336.854 122.164-43.077c12.903-3.212 22.008-10.465 29.396-19.609 1.576-1.934 3.019-3.972 4.318-6.101 3.715-5.474 6.427-11.561 8.013-17.976l13.228-49.126c.228-.954.528-1.889.897-2.798.048-.164.108-.325.182-.479.378-.89.813-1.755 1.301-2.59l.117-.182c1.553-2.699 3.633-5.061 6.117-6.947 2.485-1.886 5.323-3.259 8.347-4.036 1.911-.529 3.884-.804 5.867-.816h8.818c2.671-.003 5.307.601 7.708 1.766 2.402 1.164 4.504 2.859 6.149 4.954 1.644 2.096 2.786 4.537 3.34 7.139.554 2.601.505 5.294-.144 7.874l-48.738 193.201c-3.106 12.695-10.406 23.984-20.728 32.052-10.323 8.068-23.069 12.448-36.191 12.437h-117.065c-3.105 0-6.083-1.228-8.278-3.414s-3.429-5.151-3.429-8.243v-82.709c-.017-2.568.818-5.07 2.375-7.116 1.557-2.047 3.749-3.525 6.236-4.204z" fill="#2c415c" fill-rule="evenodd"/><path clip-rule="evenodd" d="m756.591 183.092c-5.224-.002-10.299 1.736-14.416 4.937-4.118 3.202-7.042 7.682-8.308 12.729l-16.129 58.049c-1.053 3.643-2.653 7.106-4.747 10.271-8.364 13.263-22.112 21.5-36.967 26.564l-121.981 42.546c-2.535.631-4.786 2.088-6.394 4.139-1.607 2.051-2.479 4.579-2.477 7.181v74.045c0 2.491.493 4.958 1.451 7.259.958 2.302 2.361 4.393 4.131 6.153 1.77 1.761 3.87 3.158 6.182 4.11s4.79 1.441 7.292 1.44h28.823c-2.501.001-4.978-.488-7.289-1.44-2.311-.953-4.411-2.349-6.18-4.11-1.768-1.761-3.171-3.852-4.127-6.154-.956-2.301-1.448-4.767-1.446-7.258v-75.379c.097-2.602 1.036-5.104 2.676-7.132 1.641-2.028 3.896-3.474 6.429-4.123l122.176-43.142c12.604-4.261 22.008-10.465 29.423-19.609 3.677-4.235 6.424-9.189 8.064-14.545l17.495-58.658c1.006-4.099 3.11-7.849 6.087-10.85 2.978-3.002 6.719-5.143 10.822-6.194 1.907-.529 3.875-.803 5.853-.816z" fill="#335873" fill-rule="evenodd"/><path clip-rule="evenodd" d="m544.197 257.785h-66.701c-.31-.013-.618.048-.899.178s-.527.324-.717.567c-.191.243-.321.528-.379.83-.058.303-.043.616.044.911l17.963 60.873c.24.82.744 1.539 1.436 2.045.691.505 1.53.77 2.388.753h69.354l-18.717-63.321c-.231-.818-.724-1.539-1.406-2.051-.681-.513-1.512-.788-2.366-.785z" fill="#8a8a8a" fill-rule="evenodd"/><path d="m521.408 285.008h-4.358c-.604 0-1.2.141-1.74.41-.541.269-1.012.659-1.375 1.14s-.609 1.039-.719 1.631c-.109.592-.079 1.201.088 1.779l1.119 3.886c.232.812.723 1.526 1.398 2.036.676.509 1.5.786 2.348.787h4.292c.606.002 1.203-.137 1.745-.405.542-.269 1.015-.659 1.379-1.14.365-.481.612-1.04.722-1.633.111-.593.081-1.203-.087-1.782l-1.118-3.886c-.229-.803-.712-1.512-1.378-2.02-.665-.509-1.478-.79-2.316-.803z" fill="#c0c0c0"/><path clip-rule="evenodd" d="m575.336 163.174-.156.285c-1.301 2.561-1.92 5.412-1.796 8.279.123 2.868.983 5.656 2.499 8.097 1.516 2.442 3.636 4.455 6.157 5.846s5.359 2.115 8.241 2.101h47.711c5.573-5.564 9.992-12.165 13.007-19.428 1.658-4.014 2.65-8.27 2.94-12.602l-59.665-14.078c-7.823 5.693-14.289 13.034-18.938 21.5z" fill="#23252b" fill-rule="evenodd"/><path clip-rule="evenodd" d="m656.436 179.996h-60.536l-9.287 31.732c-.514 1.74-.613 3.575-.29 5.36.324 1.785 1.061 3.47 2.154 4.921 1.092 1.451 2.51 2.628 4.139 3.438 1.63.81 3.427 1.23 5.248 1.227h45.903c1.404-.015 2.756-.532 3.809-1.457s1.737-2.196 1.927-3.581z" fill="#23252b" fill-rule="evenodd"/><path d="m629.5 228.616-6.883-33.065h-9.105l6.425 33.065c.329 1.588 1.179 3.021 2.415 4.076s2.788 1.672 4.414 1.753h9.734c-1.626-.081-2.764-.81-4-1.865s-2.671-2.376-3-3.964z" fill="#ffc680"/><path d="m643.832 232.67c.446-.564.751-1.226.891-1.93.14-.705.111-1.432-.085-2.124l-6.412-33.065h-15.609l6.426 33.065c.329 1.588 1.178 3.021 2.414 4.076s2.789 1.672 4.414 1.753h4.215c.72.017 1.435-.134 2.085-.442.651-.308 1.22-.765 1.661-1.333z" fill="#ebb66f"/><path d="m627.235 219.33c-3.845.508-7.755.188-11.466-.939-3.71-1.127-7.133-3.035-10.038-5.595-2.905-2.559-4.156-6.186-5.731-9.716s-1.107-7.138-1.067-11v-21c-.001-2.275-1.831-4.66-.865-6.721.967-2.061 2.376-3.886 4.128-5.345-3.443.788-6.515 2.716-8.715 5.469-2.2 2.752-3.397 6.167-3.395 9.684v21.383c-.008 4.448 1.079 8.83 3.167 12.762 2.088 3.933 5.112 7.295 8.808 9.793s7.951 4.055 12.392 4.535 8.933-.132 13.081-1.782z" fill="#ffc680"/><path d="m644.729 195.551v-21.383c0-4.122-1.644-8.075-4.571-10.99-2.928-2.915-6.898-4.552-11.037-4.552h-23.413c-1.536-.126-3.078.143-4.48.779s-2.617 1.619-3.53 2.855c-.913 1.235-1.493 2.683-1.684 4.206-.192 1.522.011 3.068.589 4.49v21.396c-.709 3.393-.68 6.899.087 10.28s2.253 6.559 4.358 9.32c2.105 2.76 4.78 5.039 7.844 6.683 3.065 1.645 6.448 2.615 9.921 2.847s6.956-.281 10.214-1.503c3.257-1.222 6.213-3.125 8.669-5.581 2.457-2.457 4.355-5.409 5.569-8.658 1.213-3.249 1.712-6.719 1.464-10.176z" fill="#ebb66f"/><path clip-rule="evenodd" d="m671.589 190.681-4.995-23.028c-2.27-11.191-8.896-21.033-18.43-27.376-9.534-6.344-21.201-8.673-32.454-6.48l-10.406 2.06-1.678.388c-4.28 1.349-8.195 3.652-11.446 6.735-1.3 1.14 8.546 19.79 8.546 19.79 2.53 5.635 6.476 10.526 11.456 14.201s10.827 6.01 16.978 6.781c.641.116 1.288.194 1.938.233h14.932l-9.404 44.632c5.862-.4 11.525-2.281 16.454-5.466l4.696-3.264c3.953-2.682 7.259-6.206 9.677-10.316s3.889-8.704 4.305-13.45c.198-1.812.141-3.643-.169-5.44z" fill="#23252b" fill-rule="evenodd"/><path clip-rule="evenodd" d="m629.12 183.751c.646.116 1.297.194 1.952.233h12.031v-4.96h-7.154c-.559 0-1.222-.13-1.938-.208-6.158-.767-12.014-3.1-17.003-6.775s-8.944-8.568-11.482-14.206l-.95-1.956c-1.961 1.069-3.783 2.374-5.424 3.885l1.483 3.031c2.538 5.637 6.493 10.527 11.483 14.198 4.99 3.67 10.846 5.998 17.002 6.758z" fill="#2c415c" fill-rule="evenodd"/><path d="m641.841 191.666c3.282-.005 6.488-.979 9.214-2.798s4.849-4.402 6.102-7.422c1.252-3.02 1.577-6.342.934-9.546-.644-3.204-2.227-6.147-4.549-8.455-2.322-2.309-5.279-3.88-8.498-4.516s-6.555-.307-9.586.945c-3.031 1.251-5.622 3.37-7.444 6.087-1.823 2.717-2.796 5.911-2.796 9.179 0 2.172.43 4.323 1.266 6.33s2.061 3.83 3.605 5.365 3.376 2.751 5.393 3.58 4.178 1.254 6.359 1.251z" fill="#23252b"/><path clip-rule="evenodd" d="m603.965 209.162c-.178.004-.352.055-.503.148-.151.094-.274.226-.356.383-.083.153-.127.325-.127.499s.044.345.127.498c.896 1.32 2.103 2.401 3.516 3.148s2.988 1.137 4.588 1.137c1.599 0 3.175-.39 4.587-1.137 1.413-.747 2.62-1.828 3.516-3.148.089-.151.136-.323.136-.498 0-.176-.047-.348-.136-.499-.08-.156-.2-.288-.349-.381-.149-.094-.32-.146-.496-.15z" fill="#fff" fill-rule="evenodd"/><path d="m642.817 199.45c1.544 0 3.053-.455 4.336-1.309s2.283-2.068 2.874-3.488.746-2.982.444-4.49c-.301-1.507-1.044-2.892-2.135-3.979-1.092-1.086-2.483-1.827-3.997-2.126-1.514-.3-3.083-.146-4.509.442s-2.644 1.584-3.502 2.862-1.315 2.78-1.315 4.317c0 2.061.822 4.038 2.285 5.495 1.464 1.458 3.449 2.276 5.519 2.276z" fill="#ebb66f"/><path d="m642.817 195.55c.772 0 1.526-.228 2.168-.655.642-.426 1.142-1.033 1.437-1.743.296-.71.373-1.492.222-2.245-.15-.754-.522-1.446-1.068-1.99-.545-.543-1.241-.913-1.998-1.063s-1.541-.073-2.254.221-1.323.792-1.751 1.431c-.429.639-.658 1.39-.658 2.159 0 1.03.411 2.019 1.143 2.747.732.729 1.724 1.138 2.759 1.138z" fill="#ffc680"/><path clip-rule="evenodd" d="m642.817 201.393c-.519 0-1.016.204-1.384.568s-.577.858-.58 1.374v3.886c.055.476.285.916.644 1.235.36.319.825.496 1.307.496s.947-.177 1.307-.496c.359-.319.589-.759.644-1.235v-3.886c0-.513-.204-1.005-.567-1.369s-.856-.57-1.371-.573z" fill="#fff" fill-rule="evenodd"/><path clip-rule="evenodd" d="m642.817 199.451c-.519 0-1.016.204-1.384.568s-.577.858-.58 1.375v3.885h3.902v-3.885c0-.513-.204-1.005-.567-1.369s-.856-.57-1.371-.574z" fill="#fff" fill-rule="evenodd"/><path clip-rule="evenodd" d="m580.994 163.456.169-.272c4.376-7.648 10.079-14.462 16.845-20.127 3.28-3.038 7.179-5.335 11.433-6.735l1.678-.388 10.405-2.06c1.83-.351 3.681-.58 5.541-.686-3.811-.284-7.644-.053-11.394.686l-10.406 2.06-1.677.388c-4.257 1.401-8.161 3.698-11.447 6.735-6.791 5.687-12.516 12.528-16.909 20.205l-.156.272c-1.203 2.399-1.81 5.05-1.769 7.731.04 2.681.727 5.314 2.001 7.676 1.275 2.362 3.1 4.384 5.323 5.898 2.223 1.513 4.779 2.473 7.452 2.798v-1.943c-3.871-2.044-6.783-5.518-8.108-9.677-1.326-4.158-.96-8.668 1.019-12.561z" fill="#2c415c" fill-rule="evenodd"/><path d="m594.001 185.836h-7.804c-.518 0-1.014.205-1.38.569s-.571.858-.571 1.374v3.885c0 .515.205 1.01.571 1.374s.862.569 1.38.569h7.804c.517 0 1.014-.205 1.379-.569.366-.364.572-.859.572-1.374v-3.885c0-.516-.206-1.01-.572-1.374-.365-.364-.862-.569-1.379-.569z" fill="#ffc680"/><path d="m629.12 181.94h-17.572c-1.035 0-2.028.409-2.76 1.138-.731.728-1.142 1.717-1.142 2.747v1.943c-1.197-.651-2.539-.992-3.903-.992-1.363 0-2.705.341-3.902.992v-1.943c0-1.03-.411-2.019-1.143-2.747-.731-.729-1.724-1.138-2.759-1.138h-15.609c-.518.003-1.014.21-1.38.577-.365.366-.571.862-.571 1.378v.894c.001.317.079.629.229.909s.366.519.63.697c.32.218.586.506.776.843.189.338.298.714.316 1.1v2.849c.002.82.166 1.631.483 2.388.316.757.779 1.444 1.363 2.023.583.578 1.275 1.036 2.037 1.349.761.312 1.577.471 2.4.47h6.985c.822.001 1.637-.158 2.398-.471.761-.312 1.452-.771 2.034-1.349.583-.579 1.044-1.266 1.36-2.023.315-.757.477-1.568.477-2.387 1.197-.651 2.539-.992 3.902-.992 1.364 0 2.706.341 3.903.992 0 .819.162 1.63.477 2.387s.777 1.444 1.36 2.023c.582.578 1.273 1.037 2.034 1.349.761.313 1.575.472 2.398.471h6.985c.823.001 1.639-.158 2.4-.47.762-.313 1.453-.771 2.037-1.349.583-.579 1.046-1.266 1.363-2.023s.481-1.568.482-2.388v-2.318c-.005-.511.153-1.01.453-1.425.299-.415.724-.723 1.212-.881l.911-.298c.383-.132.714-.381.947-.711s.357-.724.354-1.128v-.466c.01-.263-.033-.525-.127-.77-.094-.246-.237-.47-.421-.659s-.404-.339-.647-.44c-.244-.102-.506-.153-.77-.151zm-33.207 9.726c0 .515-.205 1.01-.571 1.374s-.863.569-1.38.569h-7.804c-.518 0-1.014-.205-1.38-.569s-.571-.859-.571-1.374v-3.885c0-.516.205-1.01.571-1.374s.862-.569 1.38-.569h7.804c.517 0 1.014.205 1.38.569s.571.858.571 1.374zm27.315 0c0 .515-.205 1.01-.571 1.374s-.862.569-1.38.569h-7.804c-.518 0-1.014-.205-1.38-.569s-.571-.859-.571-1.374v-3.885c0-.516.205-1.01.571-1.374s.862-.569 1.38-.569h7.804c.518 0 1.014.205 1.38.569s.571.858.571 1.374z" fill="#cc8729"/><path clip-rule="evenodd" d="m614.501 189.723h.975c.518 0 1.014.204 1.38.569.365.364.571.858.571 1.373v.972c0 .257-.103.504-.286.687-.183.182-.431.284-.689.284h-1.951c-.129.002-.257-.022-.376-.07s-.227-.12-.318-.21c-.091-.091-.163-.199-.211-.317-.049-.119-.073-.246-.071-.374v-1.943c0-.258.103-.505.286-.687s.431-.284.69-.284z" fill="#23252b" fill-rule="evenodd"/><path clip-rule="evenodd" d="m587.159 189.723h.976c.517 0 1.014.204 1.38.569.366.364.571.858.571 1.373v.972c.002.128-.022.255-.071.374-.048.118-.12.226-.211.317-.091.09-.199.162-.318.21s-.247.072-.376.07h-1.951c-.127 0-.253-.025-.371-.074-.117-.049-.224-.121-.314-.211-.089-.09-.16-.198-.208-.315-.047-.118-.071-.244-.069-.371v-1.943c0-.255.101-.5.281-.682s.425-.286.681-.289z" fill="#23252b" fill-rule="evenodd"/><path d="m789.733 44.7793h-70.863c-.69 0-1.352.2729-1.84.7587-.487.4858-.761 1.1446-.761 1.8316v88.1624c0 .687.274 1.346.761 1.832.488.485 1.15.758 1.84.758h73.504c.69 0 1.351-.273 1.839-.758.488-.486.762-1.145.762-1.832v-88.1494c0-.687-.274-1.3459-.762-1.8316-.488-.4858-1.149-.7587-1.839-.7587zm0 88.1497h-68.262v-82.8913h68.262z" fill="#202022"/><path d="m721.472 50v82.891h68.261v-82.891zm60.379 75.12h-52.497v-67.2713h52.497z" fill="#313130" opacity=".75"/><path d="m772.668 93.7235c-.842.0024-1.65.3324-2.251.9195l-9.442 9.416-14.712-14.6355c-.294-.2921-.642-.5237-1.026-.6815s-.796-.2387-1.211-.2381h-.234c-.418-.0016-.831.0788-1.217.2366s-.737.3899-1.033.683l-12.188 12.1485v23.52h52.497v-23.52l-6.946-6.929c-.597-.5852-1.399-.9151-2.237-.9195z" fill="#202022"/><path clip-rule="evenodd" d="m764.98 80.2042c-1.374-.2808-2.635-.9569-3.627-1.9446-.992-.9876-1.671-2.2434-1.953-3.6117-.27-1.3486-.148-2.7459.351-4.0279.052-.133.058-.2793.018-.4162-.04-.1368-.125-.2566-.24-.3408-.116-.0841-.256-.1279-.399-.1245-.144.0033-.282.0537-.393.1432-.897.6762-1.637 1.5359-2.172 2.5211-.534.9853-.851 2.0732-.928 3.1905-.076 1.1173.088 2.2379.483 3.2865.395 1.0485 1.012 2.0005 1.807 2.7919.796.7915 1.753 1.4038 2.807 1.7959 1.053.3921 2.179.5548 3.301.4771s2.214-.394 3.203-.9275c.988-.5336 1.851-1.2719 2.529-2.1654.09-.111.14-.2485.144-.3911.003-.1426-.04-.2823-.125-.3974-.084-.1152-.205-.1994-.342-.2394-.138-.0401-.285-.0339-.418.0177-1.287.501-2.69.6268-4.046.3626z" fill="#335873" fill-rule="evenodd"/></svg>
