<svg fill="none" height="398" viewBox="0 0 1054 398" width="1054" xmlns="http://www.w3.org/2000/svg"><path d="m903.86 3.65045c-28.52-4.9763-71.75-10.3308-131.69 36.82465-46.06 36.2374-34 68.3939-68.89 93.6239-72.52 52.53-150-22.692-251.42 19.836-78.56 32.943-86.37 102.8-162.3 120.844-69.2 16.442-104.21-58.571-183.7-40.228-58.15 13.416-105.86 53.744-105.86 97.237 0 13.934 7.12 32.585 21.83 45.354 19.95 17.327 44 20.632 82 20.632h762c78 0 129.17-34.257 159-87.096 18.57-32.843 29.12-70.882 29-109.11-.24-84.189-43.82-179.4455-149.97-197.91755z" fill="#f0f0f0"/><path d="m330.58 367.438h-250.19c-14.65 0-26.53 2.109-26.53 4.717s11.88 4.718 26.53 4.718h250.19c14.66 0 26.54-2.11 26.54-4.718s-11.88-4.717-26.54-4.717z" fill="#e3e3e3"/><path d="m149.94 333.25h-26.56v20.562h26.56z" fill="#695532"/><path clip-rule="evenodd" d="m304.22 353.832h-195.6c-1.565.005-3.064.627-4.17 1.729-1.105 1.102-1.727 2.596-1.73 4.153v5.872c.003-1.556.625-3.049 1.731-4.149 1.106-1.101 2.605-1.72 4.169-1.723h195.6c1.564.003 3.063.622 4.169 1.723 1.106 1.1 1.728 2.593 1.731 4.149v-5.872c-.003-1.557-.625-3.051-1.73-4.153-1.106-1.102-2.605-1.724-4.17-1.729z" fill="#6fbf5c" fill-rule="evenodd"/><path clip-rule="evenodd" d="m304.22 359.695h-195.6c-.775 0-1.542.152-2.258.447s-1.366.728-1.914 1.273-.982 1.193-1.279 1.905c-.296.713-.449 1.476-.449 2.247s.153 1.535.449 2.247c.297.713.731 1.36 1.279 1.905.548.546 1.198.978 1.914 1.273.716.296 1.483.447 2.258.447h195.6c1.565 0 3.065-.618 4.172-1.72 1.106-1.101 1.728-2.594 1.728-4.152 0-1.557-.622-3.051-1.728-4.152-1.107-1.101-2.607-1.72-4.172-1.72z" fill="#5a9c4b" fill-rule="evenodd"/><path d="m277.66 342.068h-23.61v5.872h23.61z" fill="#e5a163"/><path d="m234.86 301.233c-4.109-2.103-8.659-3.211-13.28-3.235h-44.72c-7.953.032-15.769 2.055-22.73 5.882l-1.18.587c-6.232 3.426-11.432 8.445-15.063 14.538-3.632 6.094-5.564 13.042-5.597 20.127v14.7h137.7v-20.582l-15.06-17.039c-5.731-6.153-12.53-11.227-20.07-14.978z" fill="#cc8729"/><path d="m117.48 342.656c.021 7.629 3.076 14.94 8.497 20.333 5.421 5.394 12.768 8.432 20.433 8.45h33.05c-1.802-2.72-4.258-4.95-7.144-6.488s-6.112-2.335-9.386-2.32h-16.52c-5.322-.005-10.425-2.111-14.189-5.855-3.765-3.745-5.883-8.823-5.891-14.12l14.76-27.031-12.1 7.355c-1.693 1.007-3.275 2.188-4.72 3.523-4.325 4.276-6.767 10.086-6.79 16.153z" fill="#cc8729"/><path d="m154.67 371.439h24.79c-1.802-2.72-4.258-4.95-7.144-6.488s-6.112-2.335-9.386-2.32h-8.26c.873 1.299 1.288 2.85 1.18 4.409-.037 1.539-.442 3.047-1.18 4.399z" fill="#fff"/><path d="m184.36 342.068h-8.85v11.764h23.61c0-6.479-6.49-11.764-14.76-11.764z" fill="#fff"/><path d="m176.86 342.069 2.36 2.05c.484.305.891.715 1.192 1.2s.486 1.031.543 1.598-.016 1.139-.215 1.674c-.198.534-.516 1.017-.93 1.41l-3.25 3.832h-46.7c-3.83-3.812-6.49-8.808-6.49-14.093v-.587c.018-6.227 2.512-12.195 6.935-16.599s10.418-6.888 16.675-6.909c2.718-.017 5.413.503 7.928 1.53s4.8 2.541 6.723 4.454c1.923 1.912 3.445 4.186 4.478 6.688 1.033 2.503 1.557 5.184 1.541 7.89v5.882z" fill="#e0ab60"/><path d="m244.61 320.92 8.56-14.103c-2.702-.027-5.361.667-7.702 2.009-2.34 1.343-4.277 3.285-5.608 5.625l-3 5.295c-2.566 4.359-6.099 8.076-10.33 10.868l1.18 4.399c.221.714.288 1.467.195 2.209s-.342 1.456-.733 2.094c-.39.639-.912 1.188-1.531 1.611s-1.322.711-2.061.844l-3 .587c1.166 1.463 2.722 2.571 4.49 3.195 1.769.625 3.678.742 5.51.338l5.9-1.772c4.99-1.417 10.161-2.108 15.35-2.05h1.18l-6.79-6.758c-1.874-1.858-3.055-4.297-3.348-6.913-.293-2.617.32-5.255 1.738-7.478z" fill="#fff"/><path d="m222.47 333.25c-1.341.776-2.333 2.033-2.772 3.514s-.291 3.073.412 4.449c.29.587.59.885.88 1.472l2.95-.587c.725-.16 1.409-.465 2.013-.895s1.114-.976 1.501-1.607.641-1.333.749-2.064c.107-.732.066-1.477-.123-2.192l-1.22-4.399z" fill="#503e52"/><path d="m280.61 324.442c-.966-.963-1.73-2.109-2.245-3.371-.515-1.261-.772-2.612-.755-3.974 0-5.872-5-10.281-10.92-10.281h-6.79l3.54 4.977c1.552 2.459 2.389 5.297 2.42 8.201v10.281c.011 3.114 1.258 6.097 3.471 8.299 2.212 2.202 5.21 3.444 8.339 3.455h11.81l2.95-5.872z" fill="#fff"/><path d="m262.02 306.816h-8.86l-8.55 14.392c-1.329 2.157-1.878 4.702-1.556 7.212.321 2.51 1.495 4.836 3.326 6.592l7.08 7.057h26.56c-3.128-.011-6.125-1.253-8.336-3.455-2.211-2.203-3.456-5.186-3.464-8.299v-10.321c-.014-2.904-.831-5.748-2.36-8.221z" fill="#fff"/><path d="m280.61 324.442c-.966-.963-1.73-2.109-2.245-3.371-.515-1.261-.772-2.612-.755-3.974 0-5.872-5-10.281-10.92-10.281h-6.79l3.54 4.977c1.552 2.459 2.389 5.297 2.42 8.201v10.281c.011 3.114 1.258 6.097 3.471 8.299 2.212 2.202 5.21 3.444 8.339 3.455h11.81l2.95-5.872z" fill="#503e52"/><path d="m262.02 306.816h-8.86l-8.55 14.392c-1.329 2.157-1.878 4.702-1.556 7.212.321 2.51 1.495 4.836 3.326 6.592l7.08 7.057h26.56c-3.128-.011-6.125-1.253-8.336-3.455-2.211-2.203-3.456-5.186-3.464-8.299v-10.321c-.014-2.904-.831-5.748-2.36-8.221z" fill="#e0ab60"/><path d="m255.86 327.378c-.29-.299-1.18-.587-1.48-.298l-.29.298c-.438.287-.951.44-1.475.44s-1.037-.153-1.475-.44l-.3-.298c-.59-.289-1.18-.289-1.47.298-.3.289-.59 1.175-.3 1.473l.89.876c.766.572 1.697.882 2.655.882s1.889-.31 2.655-.882l.89-.876c.087-.113.149-.243.181-.382.033-.139.035-.283.006-.422-.028-.14-.086-.272-.17-.387-.084-.116-.192-.212-.317-.282z" fill="#a36c21"/><path d="m289.17 353.832c-2.336 0-4.62-.689-6.562-1.981-1.943-1.292-3.456-3.129-4.35-5.277s-1.127-4.512-.67-6.792c.456-2.281 1.582-4.375 3.235-6.019 1.652-1.643 3.758-2.762 6.049-3.214 2.292-.453 4.667-.218 6.824.673 2.158.891 4.002 2.399 5.299 4.333 1.296 1.935 1.987 4.208 1.985 6.533-.008 3.114-1.255 6.098-3.468 8.299-2.214 2.201-5.213 3.44-8.342 3.445z" fill="#f0d37f"/><path d="m289.18 330.314h-.59v.627c.008 3.114 1.253 6.097 3.464 8.3 2.211 2.202 5.208 3.444 8.336 3.454h.59v-.587c.003-3.12-1.238-6.114-3.45-8.325-2.212-2.21-5.215-3.458-8.35-3.469z" fill="#ffeca1"/><path d="m264.67 353.832h23c0-6.459-6.49-11.744-14.75-11.744h-8.27l2.36 2.05c.482.306.888.717 1.188 1.202.299.484.484 1.03.541 1.597.057.566-.016 1.138-.213 1.672-.198.534-.514 1.016-.926 1.411z" fill="#fff"/><path d="m166.18 299.471c3.93 3.893 6.158 9.172 6.2 14.69-.011.967.173 1.926.539 2.821.366.896.909 1.709 1.595 2.393.687.684 1.503 1.225 2.402 1.591s1.863.55 2.834.54h17c2.719.018 5.415-.503 7.93-1.53 2.516-1.028 4.802-2.543 6.724-4.457 1.923-1.913 3.445-4.188 4.478-6.692 1.032-2.503 1.555-5.186 1.538-7.893v-2.985h-40.62c-3.683-.029-7.356.383-10.94 1.224z" fill="#e0ab60"/><path d="m505.86 367.438h244l-83.92-239.569h-74.27z" fill="#f7f7f7"/><path d="m631.83 124.098h-5.69v237.678h5.69z" fill="#dbdbdb"/><path d="m652.07 359.895h-46.42c-1.005 0-1.969.397-2.68 1.104-.711.708-1.11 1.667-1.11 2.668v3.772h54v-3.772c0-1.001-.399-1.96-1.11-2.668-.711-.707-1.675-1.104-2.68-1.104z" fill="#c7c7c7"/><path d="m669.73 120.326h-81.5l14.63-57.3573c.971-3.0595 2.896-5.7315 5.496-7.6284 2.6-1.897 5.74-2.9202 8.964-2.9214h23.26c3.224-.0004 6.365 1.0223 8.965 2.9194 2.6 1.8972 4.525 4.5701 5.495 7.6304z" fill="#ffeca1"/><path d="m655.07 62.9687c-.97-3.0603-2.895-5.7332-5.495-7.6304-2.6-1.8971-5.741-2.9198-8.965-2.9194h-18.66c3.224-.0004 6.365 1.0223 8.965 2.9194 2.6 1.8972 4.525 4.5701 5.495 7.6304l14.37 57.3573h19z" fill="#f0d37f"/><path d="m588.23 120.326h81.5v5.594c0 .527-.211 1.034-.586 1.407s-.884.583-1.414.583h-77.5c-.53 0-1.039-.21-1.414-.583s-.586-.88-.586-1.407v-5.554z" fill="#f0d37f"/><path d="m573.18 295.113h4.32c1.278 0 2.504.506 3.408 1.405.904.9 1.412 2.12 1.412 3.392v5.564c0 .63-.125 1.254-.367 1.836s-.597 1.111-1.045 1.556c-.447.446-.979.799-1.563 1.04-.585.241-1.212.365-1.845.365h-4.32z" fill="#f0d37f"/><path d="m570.13 290.586v18.183c0 1.608-.642 3.15-1.784 4.286-1.142 1.137-2.691 1.775-4.306 1.775h6.09c.8.002 1.593-.154 2.332-.458.74-.304 1.411-.751 1.977-1.314s1.015-1.232 1.32-1.968c.306-.736.462-1.524.461-2.321v-18.183z" fill="#f0d37f"/><path d="m570.13 308.769v-18.183h-18.27v18.183c0 .796.157 1.584.464 2.32.306.735.754 1.403 1.32 1.966.565.563 1.237 1.01 1.975 1.314.739.305 1.531.462 2.331.462h6.09c1.615 0 3.164-.639 4.306-1.776 1.142-1.136 1.784-2.678 1.784-4.286z" fill="#ffeca1"/><path d="m589.86 321.768h-111.78v6.061h111.78z" fill="#c7c7c7"/><path d="m484.17 369.331h-6.09v-54.501h11.33z" fill="#dbdbdb"/><path d="m503.25 369.331h6.09v-54.501h-12.35z" fill="#c7c7c7"/><path d="m564.71 369.331h-6.09v-54.501h12.29z" fill="#dbdbdb"/><path d="m583.77 369.331h6.09v-54.501h-11.37z" fill="#c7c7c7"/><path d="m589.86 314.621h-111.78v7.544h111.78z" fill="#dbdbdb"/><path clip-rule="evenodd" d="m598.63 239.937-.45-1.682c-.503-1.912-1.627-3.604-3.197-4.814s-3.498-1.869-5.483-1.875h-.26c-5.23.15-8.15 5.514-5.66 10.49.806 1.519 1.026 3.279.616 4.948-.409 1.669-1.418 3.131-2.836 4.109l-9.27 6.181c-1.692 1.144-3.094 2.664-4.095 4.439-1.002 1.776-1.575 3.759-1.675 5.792-.107 2.76.499 5.502 1.76 7.962l1.19 2.439c.86 1.781 3.2 1.283 3.49-.747l.53-3.812c.188-3.075 1.473-5.983 3.623-8.2 2.151-2.217 5.025-3.597 8.107-3.892 8.05-.866 14.14-7.216 14.33-15.924.016-1.83-.226-3.652-.72-5.414z" fill="#fff" fill-rule="evenodd"/><path d="m901.186 367h-442.372c-14.814 0-26.814 2.236-26.814 5s12 5 26.814 5h442.372c14.805 0 26.814-2.236 26.814-5s-12.009-5-26.814-5z" fill="#e3e3e3"/><path clip-rule="evenodd" d="m886.99 372.414h3.59l-8.79-32.844h-16.81z" fill="#230545" fill-rule="evenodd"/><path clip-rule="evenodd" d="m783.61 338.039h13.82l-23 34.376h-3.91l9.22-34.376z" fill="#230545" fill-rule="evenodd"/><path clip-rule="evenodd" d="m682.91 265.811 123.95-33.122c9.92-2.458 16.92-8.032 22.6-15.058 1.209-1.489 2.318-3.055 3.32-4.688 2.856-4.207 4.941-8.884 6.16-13.814l10.17-37.75c.175-.733.406-1.452.69-2.15.032-.128.079-.252.14-.368.291-.684.625-1.349 1-1.991l.09-.129c1.194-2.074 2.793-3.889 4.703-5.339 1.91-1.449 4.092-2.504 6.417-3.101 1.47-.405 2.985-.619 4.51-.637h6.78c2.053.001 4.079.468 5.924 1.365 1.845.896 3.46 2.199 4.724 3.81 1.263 1.61 2.142 3.486 2.568 5.485.427 1.999.391 4.068-.106 6.05l-37.47 148.463c-2.388 9.756-8 18.431-15.936 24.63-7.936 6.2-17.735 9.566-27.824 9.558h-120c-2.387 0-4.676-.944-6.364-2.624s-2.636-3.958-2.636-6.334v-63.607c-.004-1.961.638-3.868 1.829-5.431 1.19-1.562 2.863-2.693 4.761-3.218z" fill="#cc8729" fill-rule="evenodd"/><path clip-rule="evenodd" d="m665.04 266.857 123.82-32.694c11.725-2.985 21.879-10.279 28.42-20.413 1.618-2.428 2.849-5.09 3.65-7.893l12.35-44.627c.972-3.884 3.222-7.331 6.392-9.793 3.17-2.463 7.077-3.798 11.098-3.792h20.46c-1.521.017-3.034.231-4.5.637-3.155.808-6.03 2.453-8.32 4.759-2.289 2.307-3.907 5.189-4.68 8.338l-13.46 45.075c-1.265 4.114-3.376 7.92-6.2 11.177-5.69 7.027-12.68 12.6-22.61 15.059l-123.96 33.122c-1.913.51-3.604 1.634-4.809 3.198-1.206 1.564-1.86 3.479-1.861 5.451v63.577c0 2.376.948 4.654 2.636 6.334s3.977 2.623 6.364 2.623h-16.97c-1.923.002-3.827-.374-5.604-1.106s-3.391-1.805-4.751-3.158c-1.36-1.354-2.438-2.961-3.173-4.729-.736-1.768-1.113-3.664-1.112-5.577v-56.879c0-1.998.672-3.939 1.908-5.513 1.235-1.574 2.964-2.692 4.912-3.176z" fill="#ffb652" fill-rule="evenodd"/><path clip-rule="evenodd" d="m930.79 152.891h-56.7c-4.016.001-7.916 1.339-11.08 3.801-3.164 2.461-5.409 5.906-6.38 9.784l-37 143.178h87.82l36.24-140.063c.49-1.963.53-4.012.115-5.992-.415-1.981-1.273-3.843-2.511-5.448-1.237-1.605-2.823-2.911-4.638-3.822s-3.814-1.402-5.846-1.438z" fill="#ffb652" fill-rule="evenodd"/><path clip-rule="evenodd" d="m951.46 168.913-36.41 140.739h-119.82l13.69-54.629 46.68-11.615.83-.229c4.313-1.179 8.378-3.121 12-5.733 9.14-6.648 17.55-16.68 20.09-26.812l12.46-44.906c.97-3.877 3.214-7.32 6.376-9.781 3.162-2.462 7.06-3.801 11.074-3.804h17.59v.248c.867-.139 1.742-.219 2.62-.238 2.034.044 4.032.544 5.846 1.463 1.813.919 3.394 2.234 4.626 3.846 1.232 1.611 2.083 3.479 2.49 5.463.406 1.984.358 4.035-.142 5.998z" fill="#cc8729" fill-rule="evenodd"/><path d="m681.43 341.034h81.2c3.367-.002 6.596-1.335 8.977-3.705 2.381-2.369 3.72-5.583 3.723-8.934v-21.05c-.003-3.352-1.342-6.565-3.723-8.935s-5.61-3.702-8.977-3.705h-81.2c-3.367.003-6.594 1.336-8.974 3.706-2.379 2.37-3.716 5.583-3.716 8.934v21.05c0 3.35 1.337 6.564 3.716 8.934 2.38 2.37 5.607 3.703 8.974 3.705z" fill="#cc8729"/><path clip-rule="evenodd" d="m680.74 291.719c-2.387 0-4.676.943-6.364 2.623s-2.636 3.958-2.636 6.334v26.872c0 2.376.948 4.654 2.636 6.334s3.977 2.623 6.364 2.623h73.56v-44.786z" fill="#ffb652" fill-rule="evenodd"/><path clip-rule="evenodd" d="m709.27 336.545h7.51l18-44.787h-7.51z" fill="#cc8729" fill-rule="evenodd"/><path clip-rule="evenodd" d="m770.86 336.545h-22.56l4.5-44.787h18z" fill="#cc8729" fill-rule="evenodd"/><path clip-rule="evenodd" d="m851.43 189.555c2.709.533 5.286 1.592 7.584 3.118 2.297 1.526 4.269 3.487 5.804 5.772 1.534 2.286 2.601 4.85 3.138 7.546.538 2.696.536 5.471-.006 8.167l-9.09 45.433c-.269 1.348-.803 2.629-1.569 3.772-.767 1.142-1.753 2.123-2.9 2.886-1.148.764-2.436 1.295-3.79 1.563-1.353.268-2.747.268-4.101 0s-2.642-.799-3.789-1.562c-1.148-.763-2.134-1.744-2.901-2.886s-1.3-2.424-1.57-3.771c-.269-1.348-.269-2.735 0-4.082z" fill="#cc8729" fill-rule="evenodd"/><path d="m828.16 228.599c1.181-.748 2.199-1.724 2.996-2.87.796-1.145 1.355-2.438 1.643-3.801s.299-2.77.033-4.138c-.265-1.368-.803-2.669-1.581-3.827s-1.781-2.15-2.949-2.917c-1.169-.768-2.479-1.295-3.855-1.551s-2.79-.237-4.158.058-2.663.859-3.809 1.659l-47.44 31.54c-1.148.763-2.133 1.744-2.9 2.886s-1.3 2.424-1.57 3.771c-.269 1.348-.269 2.735 0 4.082.27 1.348.803 2.629 1.57 3.772.767 1.142 1.752 2.123 2.9 2.886s2.435 1.294 3.789 1.562 2.748.268 4.102 0 2.641-.799 3.789-1.562z" fill="#5a9c4b"/><path clip-rule="evenodd" d="m842.39 182.648h-23.78c-2.385.001-4.746.476-6.944 1.397s-4.189 2.27-5.856 3.968c1.595-1.592 3.473-2.875 5.54-3.782v6.051l-8.8 10.948c-.983 1.174-1.648 2.578-1.931 4.08-.284 1.501-.177 3.05.311 4.499l3.17 8.957-7.76 38.597h42l12.85-63.986c.264-1.301.234-2.644-.088-3.932s-.927-2.488-1.772-3.515-1.909-1.854-3.114-2.421c-1.205-.568-2.523-.862-3.856-.861z" fill="#5a9c4b" fill-rule="evenodd"/><path clip-rule="evenodd" d="m800.93 209.789c-.486-1.449-.592-2.999-.306-4.501.285-1.501.952-2.905 1.936-4.078l8.79-10.948v-6.051c-2.065.91-3.944 2.192-5.54 3.782l-.14.129c-.546.536-1.05 1.112-1.51 1.722l-9.14 11.356c-.258.312-.489.645-.69.995-.205.318-.386.651-.54.996-.99 2.078-1.13 4.459-.39 6.638l3.17 8.957-7.71 38.567h7.51l7.76-38.616z" fill="#6fbf5c" fill-rule="evenodd"/><path d="m818.86 261.832c2.373 0 4.693-.701 6.667-2.013 1.973-1.313 3.511-3.178 4.42-5.36.908-2.182 1.145-4.584.682-6.901-.463-2.316-1.606-4.444-3.284-6.115-1.678-1.67-3.816-2.807-6.144-3.268s-4.74-.225-6.933.679-4.067 2.435-5.386 4.399c-1.318 1.964-2.022 4.273-2.022 6.635 0 3.168 1.264 6.206 3.515 8.445 2.25 2.24 5.302 3.499 8.485 3.499z" fill="#5a9c4b"/><g clip-rule="evenodd" fill-rule="evenodd"><path d="m822.05 291.718 14.34-35.829h-1.53l-3 7.464h-105.67c-1.876.14-3.677.789-5.207 1.877-1.531 1.088-2.732 2.573-3.473 4.294l-33.36 83.492h19.11l24.89-61.268z" fill="#230545"/><path d="m730.48 255.859h-1.5c-7.51 0-15.91 5.972-18.89 13.446l-33.85 83.682h7.91l33.36-83.493c.741-1.72 1.942-3.205 3.473-4.293 1.53-1.088 3.331-1.737 5.207-1.877h105.67l3-7.465z" fill="#544463"/><path d="m650.26 370.921h52c.265 0 .52-.105.707-.292.188-.187.293-.44.293-.704v-16.919h-27l-16 7.096c-6.33 2.837-10.52 3.503-10.94 9.764-.008.13.01.261.053.385s.11.238.197.336.193.178.312.235c.118.058.247.091.378.099z" fill="#9c452d"/><path d="m680 370.922h58c.265 0 .52-.104.707-.291.188-.187.293-.44.293-.704v-16.919l-25.14-2.906-23.89 9.952c-6.33 2.837-10.52 3.504-10.94 9.764-.015.137-.002.276.04.407.041.132.11.253.201.357s.203.188.329.247c.125.058.261.09.4.093z" fill="#e37151"/><path d="m767.76 269.305-52.9 79.282c-.123.185-.204.395-.236.614-.032.22-.015.443.05.656.065.212.176.407.326.571s.334.294.54.379l4.5 1.881 19 7.902 52.82-78.944c1.203-1.799 1.952-3.86 2.185-6.008.234-2.148-.056-4.32-.845-6.333z" fill="#230545"/><path d="m785.46 263.323h3.2l-.42-.328c-1.476-.983-3.132-1.666-4.873-2.011-1.741-.346-3.534-.346-5.275-.001-1.742.345-3.398 1.028-4.874 2.01s-2.742 2.244-3.728 3.714l-55.63 83.393 6.26 2.588 55.4-82.995c2.34-3.444 5.44-6.37 9.94-6.37z" fill="#544463"/><path d="m791.86 252.865c0-5.783-6.73-10.461-15-10.461s-15 4.678-15 10.461z" fill="#ffc680"/><path d="m837.86 249.639 10.91-54.321c.35-1.675 1.116-3.236 2.229-4.54s2.537-2.309 4.141-2.924c-.567-.235-1.157-.411-1.76-.528-2.672-.52-5.442.03-7.709 1.53s-3.849 3.829-4.401 6.482l-10.92 54.321c-.353 1.801-.212 3.663.406 5.391.619 1.728 1.693 3.259 3.11 4.432s3.125 1.945 4.944 2.236c1.82.291 3.685.089 5.4-.583-2.243-.874-4.107-2.503-5.267-4.603-1.16-2.101-1.544-4.54-1.083-6.893z" fill="#6fbf5c"/><path d="m850.54 253.63 10.9-54.322c.717-.901 1.202-1.963 1.415-3.093.213-1.131.147-2.295-.193-3.394-.339-1.099-.942-2.1-1.756-2.916-.815-.815-1.816-1.422-2.918-1.767s-2.272-.419-3.409-.214c-1.137.204-2.207.681-3.118 1.388-.911.708-1.635 1.625-2.111 2.673-.476 1.047-.688 2.195-.62 3.342l-10.87 54.292c-.72.903-1.208 1.966-1.423 3.099-.214 1.133-.149 2.3.191 3.402.339 1.102.943 2.105 1.759 2.923s1.82 1.426 2.925 1.771c1.104.346 2.277.419 3.416.214 1.14-.206 2.212-.685 3.124-1.395s1.637-1.63 2.113-2.681c.475-1.051.686-2.202.615-3.352z" fill="#5a9c4b"/><path d="m824.86 252.865c0-5.783-6.72-10.461-15-10.461s-15 4.678-15 10.461z" fill="#ffc680"/><path d="m765.56 205.051h-46.28c-.466 0-.925.108-1.342.315-.416.208-.779.509-1.058.88-.279.37-.468.801-.552 1.257-.083.456-.058.925.072 1.37l13.25 44.787c.18.623.56 1.172 1.082 1.561.521.39 1.156.6 1.808.598h46.32c.468.001.93-.108 1.349-.317.418-.209.782-.513 1.061-.887.279-.371.468-.801.552-1.257.083-.456.058-.925-.072-1.37l-13.26-44.787c-.184-.629-.571-1.179-1.1-1.568-.529-.388-1.172-.593-1.83-.582z" fill="#e5e5e5"/><path d="m770.86 249.879h39c.398 0 .779.157 1.061.437.281.28.439.66.439 1.056v2.986c0 .396-.158.775-.439 1.055-.282.28-.663.438-1.061.438h-39z" fill="#e5e5e5"/><path d="m786.49 265.811 93.92-33.122c9.92-2.458 16.92-8.032 22.6-15.058 1.209-1.489 2.318-3.055 3.32-4.688 2.849-4.21 4.93-8.886 6.15-13.814l10.18-37.75c.177-.732.404-1.45.68-2.15.04-.127.09-.25.15-.368.271-.685.588-1.35.95-1.991l.09-.129c1.194-2.074 2.793-3.889 4.703-5.339 1.91-1.449 4.092-2.504 6.417-3.101 1.47-.405 2.985-.619 4.51-.637h6.78c2.053.001 4.079.468 5.924 1.365 1.845.896 3.46 2.199 4.724 3.81 1.263 1.61 2.142 3.486 2.568 5.485.427 1.999.391 4.068-.106 6.05l-37.47 148.463c-2.39 9.746-7.998 18.411-15.925 24.606-7.928 6.195-17.716 9.563-27.795 9.562h-90c-2.387 0-4.676-.944-6.364-2.624s-2.636-3.958-2.636-6.334v-63.587c-.002-1.966.647-3.878 1.845-5.441s2.879-2.69 4.785-3.208z" fill="#cc8729"/><path d="m924.3 147.645c-4.013.005-7.908 1.345-11.068 3.807-3.159 2.461-5.402 5.903-6.372 9.778l-12.35 44.627c-.81 2.799-2.04 5.46-3.65 7.893-6.43 10.191-17 16.521-28.42 20.413l-93.78 32.694c-1.948.484-3.677 1.602-4.912 3.176-1.236 1.574-1.908 3.515-1.908 5.512v56.89c0 1.914.379 3.809 1.115 5.578.737 1.768 1.816 3.375 3.176 4.728 1.361 1.353 2.976 2.426 4.753 3.158 1.778.732 3.683 1.108 5.606 1.106h22.16c-1.923.002-3.828-.374-5.606-1.106-1.777-.732-3.392-1.805-4.752-3.158-1.361-1.353-2.44-2.96-3.177-4.728-.736-1.769-1.115-3.664-1.115-5.578v-57.974c.073-2.001.794-3.924 2.056-5.483 1.261-1.558 2.996-2.669 4.944-3.166l93.91-33.122c9.69-3.265 16.92-8.032 22.61-15.059 2.831-3.251 4.944-7.06 6.2-11.177l13.46-45.075c.773-3.149 2.391-6.031 4.68-8.338 2.29-2.306 5.165-3.951 8.32-4.759 1.466-.406 2.979-.62 4.5-.637z" fill="#ffb652"/><path d="m761.06 205.052h-51.28c-.238-.01-.475.037-.691.137s-.405.249-.551.436c-.147.186-.247.405-.292.638-.044.232-.033.472.034.7l13.81 46.777c.183.632.57 1.186 1.101 1.577.532.39 1.178.595 1.839.583h53.3l-14.39-48.658c-.174-.628-.55-1.182-1.07-1.577s-1.156-.611-1.81-.613z" fill="#fff"/><path d="m743.54 225.973h-3.35c-.465 0-.923.108-1.338.315-.416.206-.778.506-1.057.876s-.468.799-.552 1.253c-.085.455-.062.923.067 1.367l.86 2.986c.178.624.555 1.173 1.075 1.565.52.391 1.153.604 1.805.605h3.34c.465.001.925-.106 1.342-.312.416-.206.779-.506 1.06-.875.28-.37.47-.8.555-1.255.085-.456.062-.925-.067-1.37l-.86-2.986c-.178-.624-.556-1.173-1.075-1.564-.52-.392-1.153-.604-1.805-.605z" fill="#e5e5e5"/><path d="m784.99 132.348-.11.209c-1.003 1.968-1.48 4.16-1.386 6.365.093 2.205.754 4.349 1.92 6.226 1.165 1.878 2.796 3.426 4.736 4.496 1.939 1.069 4.123 1.625 6.34 1.613h36.67c4.287-4.273 7.685-9.346 10-14.928 1.269-3.087 2.032-6.357 2.26-9.684l-45.88-10.819c-6.006 4.382-10.972 10.022-14.55 16.522z" fill="#230545"/><path d="m847.38 145.275h-46.52l-7.15 24.384c-.394 1.337-.468 2.748-.218 4.119s.818 2.665 1.659 3.779 1.931 2.017 3.184 2.638c1.253.622 2.635.943 4.035.94h35.29c1.079-.01 2.118-.405 2.928-1.114.809-.709 1.335-1.684 1.482-2.748z" fill="#230545"/><path d="m834.78 187.116h-10.23c-1.25-.061-2.445-.534-3.395-1.344-.951-.811-1.604-1.914-1.855-3.134l-4.94-25.409h19l4.93 25.409c.148.531.17 1.089.062 1.63-.107.541-.34 1.05-.68 1.485s-.778.785-1.278 1.022c-.501.237-1.05.354-1.604.341z" fill="#ffc680"/><path d="m808.35 128.834h18c3.183 0 6.235 1.258 8.485 3.498 2.251 2.24 3.515 5.278 3.515 8.445v16.432c0 5.543-2.213 10.859-6.151 14.779-3.938 3.919-9.279 6.121-14.849 6.121s-10.911-2.202-14.849-6.121c-3.939-3.92-6.151-9.236-6.151-14.779v-16.362c-.009-1.574.294-3.135.893-4.592s1.482-2.782 2.597-3.898c1.115-1.117 2.441-2.003 3.902-2.607 1.46-.605 3.026-.916 4.608-.916z" fill="#ffc680"/><path d="m859 153.477-3.84-17.686c-1.746-8.6-6.84-16.163-14.169-21.037-7.33-4.875-16.3-6.665-24.951-4.979l-8 1.583-1.29.298c-3.288 1.037-6.297 2.803-8.8 5.165-1 .886 6.56 15.218 6.56 15.218 1.952 4.327 4.988 8.083 8.818 10.906 3.829 2.824 8.324 4.62 13.052 5.217.493.09.99.15 1.49.179h11.51l-7.24 34.307c4.504-.306 8.855-1.751 12.64-4.2l3.62-2.518c3.039-2.06 5.58-4.766 7.439-7.923 1.859-3.156 2.99-6.685 3.311-10.33.146-1.4.096-2.814-.15-4.2z" fill="#230545"/><path d="m826.36 148.162c.496.09.997.15 1.5.179h9.25v-3.812h-5.5c-.43 0-1-.109-1.49-.169-4.736-.586-9.239-2.377-13.075-5.202-3.837-2.824-6.876-6.586-8.825-10.921l-.73-1.493c-1.509.824-2.913 1.826-4.18 2.986l1.15 2.329c1.953 4.33 4.994 8.087 8.83 10.907 3.836 2.821 8.337 4.61 13.07 5.196z" fill="#544463"/></g><path d="m836.12 154.243c2.527.002 4.997-.742 7.098-2.138 2.102-1.395 3.74-3.38 4.708-5.703s1.222-4.879.729-7.345c-.492-2.467-1.709-4.732-3.495-6.51-1.787-1.778-4.063-2.989-6.541-3.479s-5.047-.238-7.38.726c-2.334.963-4.329 2.593-5.731 4.685-1.402 2.091-2.15 4.55-2.148 7.065.003 3.367 1.348 6.596 3.74 8.977 2.393 2.381 5.637 3.72 9.02 3.722z" fill="#230545"/><path clip-rule="evenodd" d="m807.01 167.719c-.135.002-.268.041-.384.111-.116.069-.211.169-.276.287-.064.118-.097.249-.097.383s.033.266.097.383c.687 1.016 1.615 1.849 2.701 2.424 1.086.576 2.298.877 3.529.877s2.442-.301 3.529-.877c1.086-.575 2.014-1.408 2.701-2.424.069-.116.105-.248.105-.383s-.036-.267-.105-.383c-.064-.117-.158-.215-.272-.285s-.244-.109-.378-.113z" fill="#fff" fill-rule="evenodd"/><path d="m836.86 160.215c1.187 0 2.347-.351 3.333-1.007.987-.656 1.756-1.589 2.21-2.68s.573-2.292.342-3.45c-.232-1.158-.803-2.222-1.642-3.057-.839-.836-1.909-1.404-3.072-1.635-1.164-.23-2.371-.112-3.467.34-1.097.452-2.033 1.217-2.693 2.199-.659.982-1.011 2.137-1.011 3.318 0 1.584.632 3.103 1.757 4.223 1.126 1.119 2.652 1.749 4.243 1.749z" fill="#ffc680"/><path d="m836.86 157.229c.593 0 1.173-.175 1.667-.503.493-.328.878-.794 1.105-1.34.227-.545.286-1.146.17-1.725-.115-.579-.401-1.111-.821-1.529-.419-.417-.954-.702-1.536-.817s-1.185-.056-1.733.17-1.017.609-1.346 1.1c-.33.491-.506 1.068-.506 1.659 0 .791.316 1.551.879 2.111.562.56 1.325.874 2.121.874z" fill="#ffb652"/><path clip-rule="evenodd" d="m836.86 161.748c-.399 0-.781.157-1.064.437-.283.279-.443.659-.446 1.056v2.986c.043.366.219.704.495.949.277.245.635.381 1.005.381s.728-.136 1.004-.381c.277-.245.453-.583.496-.949v-2.986c0-.394-.157-.772-.436-1.052s-.658-.438-1.054-.441z" fill="#fff" fill-rule="evenodd"/><path clip-rule="evenodd" d="m836.86 160.215c-.4.002-.782.162-1.065.443-.282.281-.442.662-.445 1.06v2.985h3v-2.985c0-.395-.156-.775-.435-1.056s-.658-.442-1.055-.447z" fill="#fff" fill-rule="evenodd"/><path clip-rule="evenodd" d="m789.37 132.556.13-.209c3.366-5.872 7.746-11.108 12.94-15.466 2.528-2.328 5.529-4.09 8.8-5.165l1.29-.299 8-1.582c1.407-.271 2.83-.447 4.26-.528-2.931-.218-5.877-.041-8.76.528l-8 1.582-1.29.299c-3.271 1.075-6.272 2.837-8.8 5.165-5.216 4.375-9.616 9.631-13 15.526l-.11.209c-.929 1.844-1.399 3.883-1.37 5.945.029 2.063.555 4.088 1.536 5.905s2.386 3.373 4.097 4.536c1.712 1.163 3.679 1.899 5.737 2.146v-1.493c-2.979-1.571-5.219-4.242-6.24-7.439s-.741-6.666.78-9.66z" fill="#544463" fill-rule="evenodd"/><path d="m799.34 149.805h-6c-.197.001-.392.041-.573.117-.182.076-.346.187-.485.327-.138.14-.248.305-.322.486-.074.182-.111.376-.11.573v2.985c-.001.196.036.39.11.571.075.181.184.346.323.484.138.139.303.249.484.324.182.076.376.114.573.114h6c.398 0 .779-.157 1.061-.437.281-.28.439-.66.439-1.056v-2.985c0-.397-.158-.778-.439-1.06-.281-.281-.662-.441-1.061-.443z" fill="#ffc680"/><path d="m826.37 146.818h-13.51c-.796 0-1.559.315-2.121.875-.563.56-.879 1.319-.879 2.111v1.503c-.92-.5-1.952-.762-3-.762s-2.08.262-3 .762v-1.503c0-.792-.316-1.551-.879-2.111-.562-.56-1.325-.875-2.121-.875h-12c-.398 0-.779.158-1.061.438-.281.28-.439.659-.439 1.055v.687c.001.245.061.486.176.703s.281.403.484.541c.246.168.45.389.596.648s.229.549.244.845v2.18c0 .631.125 1.255.368 1.838.243.582.599 1.112 1.047 1.557.449.446.981.799 1.567 1.04.586.24 1.214.363 1.848.362h5.37c1.278 0 2.504-.506 3.408-1.405.904-.9 1.412-2.12 1.412-3.392.92-.5 1.952-.762 3-.762s2.08.262 3 .762c-.001.63.122 1.254.364 1.837s.597 1.112 1.045 1.558c.448.445.979.799 1.565 1.039.585.241 1.213.364 1.846.363h5.37c.633.001 1.261-.122 1.846-.363.586-.24 1.117-.594 1.565-1.039.448-.446.803-.975 1.045-1.558.241-.583.365-1.207.364-1.837v-1.822c-.004-.392.118-.776.348-1.094.23-.319.557-.556.932-.677l.71-.229c.295-.104.55-.297.729-.552.18-.255.274-.56.271-.871v-.359c.001-.197-.037-.392-.112-.575-.076-.182-.187-.348-.328-.487s-.308-.249-.491-.322c-.184-.074-.381-.111-.579-.109zm-25.51 7.425c0 .396-.158.776-.439 1.056-.282.28-.663.437-1.061.437h-6c-.197 0-.391-.039-.573-.114-.181-.075-.346-.185-.484-.324-.139-.139-.248-.303-.322-.484-.075-.181-.112-.375-.111-.571v-2.986c-.001-.196.036-.39.11-.572.075-.181.184-.347.322-.486.139-.14.303-.251.485-.327.181-.076.376-.116.573-.117h6c.399.002.78.162 1.061.443.281.282.439.662.439 1.059zm21 0c0 .396-.158.776-.439 1.056-.282.28-.663.437-1.061.437h-6c-.399 0-.781-.157-1.064-.437-.283-.279-.443-.659-.446-1.056v-2.986c.003-.397.163-.778.445-1.059.283-.282.665-.441 1.065-.443h6c.399.002.78.162 1.061.443.281.282.439.662.439 1.059z" fill="#cc8729"/><path clip-rule="evenodd" d="m815.11 152.791h.75c.398 0 .779.157 1.061.437.281.28.439.66.439 1.056v.746c-.003.199-.084.389-.226.529s-.334.218-.534.218h-1.49c-.199 0-.39-.079-.53-.219-.141-.14-.22-.33-.22-.528v-1.492c-.001-.099.017-.197.054-.288s.093-.174.163-.243c.07-.07.153-.125.244-.162.092-.037.19-.055.289-.054z" fill="#230545" fill-rule="evenodd"/><path clip-rule="evenodd" d="m794.09 152.791h.75c.398 0 .779.157 1.061.437.281.28.439.66.439 1.056v.746c0 .198-.079.388-.22.528-.14.14-.331.219-.53.219h-1.5c-.198-.003-.387-.082-.528-.222-.14-.139-.219-.327-.222-.525v-1.493c0-.198.079-.387.22-.527.14-.14.331-.219.53-.219z" fill="#230545" fill-rule="evenodd"/><path d="m949.82 45.3818h-52.47v63.7262h52.47z" fill="#f7f7f7"/><path d="m949.86 41.3213h-54.49c-.53 0-1.039.2097-1.414.583s-.586.8796-.586 1.4075v67.7472c0 .528.211 1.034.586 1.408.375.373.884.583 1.414.583h56.49c.53 0 1.039-.21 1.414-.583.375-.374.586-.88.586-1.408v-67.6875c0-.5279-.211-1.0342-.586-1.4075s-.884-.583-1.414-.583zm0 67.7477h-52.47v-63.697h52.47z" fill="#dbdbdb"/><path d="m943.77 51.4131h-40.36v51.6739h40.36z" fill="#dbdbdb"/><path d="m936.71 78.9818c-.647.0018-1.268.2554-1.73.7066l-7.27 7.2356-11.3-11.2465c-.455-.456-1.074-.7137-1.72-.7166h-.18c-.649.0013-1.271.259-1.73.7166l-9.37 9.3257v18.0838h40.36v-18.0838l-5.34-5.3148c-.459-.4497-1.076-.7032-1.72-.7066z" fill="#c7c7c7"/><path d="m929.64 71.4879c3.341 0 6.05-2.6958 6.05-6.0213 0-3.3254-2.709-6.0213-6.05-6.0213s-6.05 2.6959-6.05 6.0213c0 3.3255 2.709 6.0213 6.05 6.0213z" fill="#f7f7f7"/></svg>
