<svg fill="none" height="399" viewBox="0 0 1054 399" width="1054" xmlns="http://www.w3.org/2000/svg"><path d="m903.86 3.80131c-28.52-4.97868-71.75-10.32577-131.69 36.84219-46.06 36.2547-34.05 68.4265-68.89 93.6685-72.52 52.535-150-22.702-251.42 19.845-78.56 32.959-86.37 102.85-162.3 120.902-69.2 16.45-104.21-58.599-183.7-40.247-58.14 13.422-105.86 53.769-105.86 97.283 0 13.94 7.11996 32.6 21.83 45.376 20 17.335 44 20.641 82 20.641h762c78 0 129.17-34.273 159-87.136 18.57-32.91 29.12-70.917 29-109.163-.24-84.229-43.82-179.5309-149.97-198.01169z" fill="#282828" fill-opacity=".6"/><path d="m330.58 367.762h-250.1801c-14.66 0-26.54 2.121-26.54 4.719 0 2.599 11.88 4.72 26.54 4.72h250.1801c14.66 0 26.54-2.111 26.54-4.72 0-2.608-11.88-4.719-26.54-4.719z" fill="#202022"/><path d="m149.94 333.559h-26.56v20.571h26.56z" fill="#695532"/><path clip-rule="evenodd" d="m304.22 354.141h-195.6c-1.564.002-3.063.622-4.169 1.723s-1.729 2.594-1.731 4.151v5.875c.005-1.556.628-3.047 1.734-4.148 1.105-1.101 2.603-1.721 4.166-1.727h195.6c1.564.006 3.062.626 4.169 1.726 1.107 1.101 1.733 2.592 1.741 4.149v-5.875c-.006-1.558-.63-3.051-1.738-4.151-1.107-1.101-2.607-1.721-4.172-1.723z" fill="#335873" fill-rule="evenodd"/><path clip-rule="evenodd" d="m304.22 360.015h-195.6c-1.524.062-2.965.709-4.021 1.805s-1.646 2.556-1.646 4.075c0 1.518.59 2.978 1.646 4.074s2.497 1.743 4.021 1.805h195.6c.796.033 1.59-.095 2.335-.376s1.425-.708 2-1.258c.575-.549 1.032-1.208 1.344-1.938.313-.729.474-1.514.474-2.307 0-.794-.161-1.579-.474-2.308-.312-.73-.769-1.389-1.344-1.938-.575-.55-1.255-.977-2-1.258s-1.539-.409-2.335-.376z" fill="#2c415c" fill-rule="evenodd"/><path d="m277.66 342.381h-23.61v5.875h23.61z" fill="#695532"/><path d="m234.86 301.525c-4.111-2.099-8.66-3.208-13.28-3.236h-44.77c-7.953.032-15.769 2.056-22.73 5.885l-1.18.587c-6.232 3.428-11.432 8.449-15.064 14.545-3.632 6.097-5.564 13.048-5.596 20.137v14.697h137.75v-20.602l-15.06-17.037c-5.732-6.152-12.531-11.225-20.07-14.976z" fill="#453a29"/><path d="m117.48 342.968c.018 7.634 3.072 14.951 8.494 20.349 5.421 5.398 12.769 8.439 20.436 8.458h33.06c-1.802-2.723-4.257-4.956-7.143-6.496s-6.112-2.34-9.387-2.327h-16.53c-5.32-.008-10.419-2.116-14.179-5.862-3.761-3.747-5.876-8.825-5.881-14.122l14.75-27.044-12.1 7.348c-1.691 1.014-3.273 2.198-4.72 3.535-4.328 4.277-6.774 10.089-6.8 16.161z" fill="#453a29"/><path d="m154.67 371.774h24.8c-1.802-2.723-4.257-4.955-7.143-6.496-2.886-1.54-6.112-2.34-9.387-2.327h-8.27c.873 1.3 1.288 2.852 1.18 4.411-.039 1.543-.443 3.054-1.18 4.412z" fill="#8a8a8a"/><path d="m184.35 342.381h-8.86v11.759h23.61c.02-6.472-6.47-11.759-14.75-11.759z" fill="#8a8a8a"/><path d="m176.86 342.381 2.36 2.061c.482.305.888.715 1.187 1.199.3.484.485 1.03.542 1.596.057.565-.016 1.137-.214 1.67-.197.534-.513 1.016-.925 1.41l-3.25 3.824h-46.68c-3.84-3.824-6.5-8.823-6.5-14.11v-.588c.018-6.232 2.513-12.203 6.938-16.61 4.426-4.407 10.423-6.89 16.682-6.909 2.72-.016 5.416.507 7.932 1.537s4.801 2.547 6.723 4.464c1.922 1.916 3.442 4.194 4.473 6.701 1.031 2.506 1.552 5.191 1.532 7.9v5.875z" fill="#695532"/><path d="m244.61 321.221 8.56-14.109c-2.697-.022-5.35.675-7.685 2.018-2.335 1.342-4.267 3.283-5.595 5.619l-3 5.297c-2.572 4.357-6.104 8.076-10.33 10.874l1.18 4.411c.218.715.281 1.467.187 2.208-.095.741-.346 1.454-.737 2.092-.391.637-.913 1.185-1.532 1.608-.619.422-1.32.71-2.058.843l-3 .597c1.167 1.463 2.724 2.569 4.492 3.192s3.677.739 5.508.333l5.9-1.762c4.989-1.426 10.16-2.121 15.35-2.061h1.18l-6.79-6.761c-1.878-1.857-3.062-4.296-3.359-6.914-.296-2.618.314-5.259 1.729-7.485z" fill="#8a8a8a"/><path d="m222.47 333.539c-1.343.774-2.336 2.032-2.776 3.514-.439 1.482-.29 3.076.416 4.452.29.587.59.886.88 1.473l3-.587c.724-.162 1.407-.467 2.01-.898s1.112-.978 1.497-1.609c.386-.631.64-1.333.747-2.064s.064-1.476-.124-2.19l-1.18-4.411z" fill="#23252b"/><path d="m262.02 307.111h-8.85l-8.56 14.399c-1.332 2.157-1.885 4.702-1.569 7.215.316 2.512 1.483 4.842 3.309 6.605l7.08 7.05h26.57c-3.13-.008-6.129-1.249-8.342-3.453-2.213-2.203-3.46-5.19-3.468-8.306v-10.286c-.014-2.906-.831-5.751-2.36-8.225z" fill="#fff"/><path d="m280.61 324.746c-.967-.964-1.73-2.111-2.245-3.373s-.772-2.614-.755-3.976c0-5.875-5-10.286-10.92-10.286h-6.79l3.54 4.979c1.537 2.471 2.357 5.318 2.37 8.225v10.286c.008 3.114 1.253 6.099 3.464 8.303 2.211 2.203 5.208 3.446 8.336 3.456h11.81l3-5.875z" fill="#222"/><path d="m262.02 307.111h-8.85l-8.56 14.399c-1.332 2.157-1.885 4.702-1.569 7.215.316 2.512 1.483 4.842 3.309 6.605l7.08 7.05h26.57c-3.13-.008-6.129-1.249-8.342-3.453-2.213-2.203-3.46-5.19-3.468-8.306v-10.286c-.014-2.906-.831-5.751-2.36-8.225z" fill="#695532"/><path d="m255.82 327.683c-.29-.289-1.18-.588-1.47-.289l-.3.289c-.443.298-.966.457-1.5.457-.535 0-1.057-.159-1.5-.457l-.3-.289c-.59-.299-1.18-.299-1.47.289-.3.299-.59 1.175-.3 1.474l.89.876c.765.573 1.697.882 2.655.882.957 0 1.889-.309 2.655-.882l.89-.876c.089-.11.154-.238.19-.374.036-.137.043-.28.019-.419-.024-.14-.077-.273-.156-.39s-.183-.217-.303-.291z" fill="#23252b"/><path d="m289.17 354.14c-2.336 0-4.619-.689-6.561-1.982-1.942-1.292-3.456-3.128-4.35-5.277s-1.128-4.513-.672-6.794c.455-2.282 1.58-4.377 3.232-6.022 1.652-1.644 3.756-2.764 6.047-3.218s4.666-.221 6.824.669 4.002 2.398 5.3 4.331c1.297 1.934 1.99 4.208 1.99 6.534-.008 3.116-1.255 6.103-3.468 8.306-2.213 2.204-5.212 3.445-8.342 3.453z" fill="#baa462"/><path d="m289.18 330.621h-.59v.588c.008 3.114 1.253 6.099 3.464 8.303 2.211 2.203 5.208 3.446 8.336 3.456h.59v-.587c-.008-3.115-1.253-6.1-3.464-8.303-2.211-2.204-5.208-3.446-8.336-3.457z" fill="#f0d37f"/><path d="m264.67 354.14h23c0-6.472-6.5-11.759-14.76-11.759h-8.27l2.36 2.061c.483.304.891.713 1.192 1.197.3.485.486 1.031.543 1.597s-.017 1.138-.215 1.672-.517 1.016-.93 1.409z" fill="#8a8a8a"/><path d="m166.18 299.763c3.934 3.892 6.163 9.175 6.2 14.697-.009.968.175 1.927.543 2.823.367.896.91 1.71 1.598 2.394.687.684 1.504 1.225 2.404 1.591.899.366 1.863.55 2.835.54h17c2.718.018 5.412-.503 7.927-1.53 2.514-1.028 4.798-2.543 6.72-4.457 1.922-1.913 3.443-4.188 4.475-6.692 1.032-2.503 1.555-5.186 1.538-7.892v-2.988h-40.65c-3.675-.043-7.341.354-10.92 1.185z" fill="#695532"/><path clip-rule="evenodd" d="m586.355 142.952c-.018-.003-.037-.005-.055-.007l-80.49 224.797 244.05.02-76-217.09c-.011 0-.022 0-.033.001l-7.917-22.107h-74.26z" fill="#313130" fill-rule="evenodd"/><path d="m631.83 128.566h-5.69v233.54h5.69z" fill="#8a8a8a"/><path clip-rule="evenodd" d="m652.07 360.215h-46.42c-1.005 0-1.969.397-2.68 1.105s-1.11 1.668-1.11 2.669v3.774h54v-3.774c0-1.001-.399-1.961-1.11-2.669s-1.675-1.105-2.68-1.105z" fill="#8a8a8a" fill-rule="evenodd"/><path d="m669.73 121.019h-81.5l14.66-57.3941c.973-3.0591 2.899-5.7302 5.499-7.6261 2.6-1.896 5.739-2.9183 8.961-2.9187h23.27c3.222-.0006 6.36 1.0215 8.958 2.9177 2.599 1.8963 4.522 4.568 5.492 7.6271z" fill="#f0d37f"/><path d="m658.84 122.592h-59.72l10.74-42.0594c.712-2.2428 2.124-4.2011 4.03-5.5906 1.907-1.3895 4.208-2.1378 6.57-2.1363h17c2.361.0006 4.66.7499 6.564 2.1392 1.904 1.3894 3.314 3.3465 4.026 5.5877z" fill="#ffeca1"/><path d="m628.98 108.653c-1.414-.002-2.809-.326-4.078-.946-1.27-.62-2.381-1.52-3.249-2.632-.867-1.111-1.469-2.406-1.759-3.784-.29-1.3778-.261-2.8036.086-4.1686l1.36-5.2874c.283-.8969.845-1.6807 1.606-2.2376s1.68-.8578 2.624-.8591h6.78c.946-.0008 1.867.2991 2.63.8561.763.5571 1.327 1.3421 1.61 2.2406l1.35 5.2874c.348 1.3619.38 2.7849.093 4.1606-.287 1.376-.885 2.669-1.749 3.78-.863 1.112-1.97 2.013-3.236 2.635-1.265.622-2.657.948-4.068.955z" fill="#fffae3"/><path d="m588.23 121.02h81.5v5.556c0 .528-.211 1.034-.586 1.408-.375.373-.884.583-1.414.583h-77.5c-.53 0-1.039-.21-1.414-.583-.375-.374-.586-.88-.586-1.408z" fill="#baa462"/><path d="m573.18 295.422h4.32c.633 0 1.26.124 1.845.365s1.116.595 1.563 1.041c.448.445.803.974 1.045 1.557.242.582.367 1.206.367 1.836v5.566c0 1.273-.508 2.494-1.412 3.394-.903.9-2.13 1.406-3.408 1.406h-4.32z" fill="#3a739c"/><path clip-rule="evenodd" d="m570.13 290.871v18.192c.001.797-.155 1.587-.461 2.324-.305.737-.754 1.406-1.319 1.971-.566.564-1.237 1.011-1.977 1.317-.739.305-1.532.462-2.333.462h6.09c.801 0 1.593-.157 2.333-.462.739-.306 1.411-.753 1.977-1.317.566-.565 1.014-1.234 1.319-1.971.306-.737.463-1.527.461-2.324v-18.192z" fill="#3a739c" fill-rule="evenodd"/><path clip-rule="evenodd" d="m570.13 309.063v-18.192h-18.27v18.192c0 1.609.642 3.153 1.783 4.292 1.142 1.138 2.691 1.78 4.307 1.782h6.09c.801 0 1.594-.157 2.333-.462.74-.306 1.411-.753 1.977-1.317.565-.565 1.014-1.234 1.319-1.971.306-.737.462-1.527.461-2.324z" fill="#335873" fill-rule="evenodd"/><path d="m589.86 322.068h-111.78v6.064h111.78z" fill="#202022"/><path clip-rule="evenodd" d="m484.17 369.653h-6.09v-54.526h11.33z" fill="#2c415c" fill-rule="evenodd"/><path d="m503.25 369.653h6.09v-54.526h-12.35z" fill="#202022"/><path clip-rule="evenodd" d="m564.71 369.653h-6.09v-54.526h12.29z" fill="#2c415c" fill-rule="evenodd"/><path d="m583.77 369.653h6.09v-54.526h-11.37z" fill="#202022"/><path d="m589.86 314.918h-111.78v7.548h111.78z" fill="#2c415c"/><path d="m598.63 240.198-.44-1.682c-.503-1.913-1.627-3.606-3.197-4.816-1.57-1.211-3.498-1.87-5.483-1.876h-.27c-5.23.15-8.15 5.517-5.66 10.505.817 1.516 1.042 3.279.632 4.949-.41 1.671-1.425 3.132-2.852 4.102l-9.27 6.164c-1.69 1.154-3.088 2.682-4.084 4.466-.996 1.783-1.563 3.772-1.656 5.81-.104 2.761.502 5.503 1.76 7.966l1.19 2.439c.86 1.783 3.21 1.275 3.49-.756l.53-3.814c.197-3.07 1.486-5.97 3.636-8.179 2.149-2.21 5.019-3.585 8.094-3.879 8-.877 14.14-7.229 14.33-15.932.016-1.849-.237-3.69-.75-5.467z" fill="#fff" opacity=".1"/><path d="m885.14 367.762h-455.66c-15.25 0-27.62 2.121-27.62 4.719 0 2.599 12.37 4.72 27.62 4.72h455.66c15.25 0 27.62-2.111 27.62-4.72 0-2.608-12.41-4.719-27.62-4.719z" fill="#202022"/><g clip-rule="evenodd" fill-rule="evenodd"><path d="m886.99 372.74h3.59l-8.78-32.859h-16.82z" fill="#202022"/><path d="m783.61 338.357h13.82l-23 34.383h-3.9l9.21-34.383z" fill="#202022"/><path d="m682.91 266.088 123.94-33.118c9.92-2.469 16.92-8.045 22.61-15.075 1.206-1.492 2.314-3.058 3.32-4.69 2.849-4.212 4.931-8.89 6.15-13.821l10.17-37.768c.176-.733.406-1.452.69-2.151 0-.129.09-.249.14-.368.291-.685.625-1.35 1-1.992l.09-.139c1.194-2.075 2.793-3.891 4.703-5.341 1.91-1.451 4.092-2.506 6.417-3.103 1.469-.406 2.986-.617 4.51-.627h6.7c2.054-.003 4.08.462 5.926 1.357s3.463 2.198 4.727 3.809 2.142 3.488 2.568 5.488.388 4.071-.111 6.054l-37.47 148.534c-2.388 9.76-8 18.439-15.936 24.641-7.936 6.203-17.735 9.571-27.824 9.562h-120c-2.387 0-4.676-.944-6.364-2.625-1.688-1.68-2.636-3.96-2.636-6.336v-63.588c-.01-1.982.641-3.911 1.849-5.486 1.209-1.575 2.908-2.706 4.831-3.217z" fill="#2c415c"/><path d="m665.04 267.133 123.79-32.71c11.717-2.974 21.87-10.252 28.42-20.372 1.618-2.43 2.849-5.093 3.65-7.897l12.36-44.648c.973-3.882 3.223-7.328 6.391-9.789 3.167-2.462 7.071-3.797 11.089-3.793h20.46c-1.521.009-3.035.22-4.5.627-3.155.809-6.03 2.454-8.32 4.762-2.289 2.308-3.907 5.191-4.68 8.342l-13.45 45.097c-1.266 4.117-3.381 7.926-6.21 11.182-5.69 7.03-12.68 12.606-22.61 15.075l-123.94 33.128c-1.911.513-3.599 1.638-4.803 3.203-1.204 1.564-1.857 3.48-1.857 5.45v63.618c0 2.377.948 4.656 2.636 6.337 1.688 1.68 3.977 2.625 6.364 2.625h-17c-3.883 0-7.606-1.536-10.352-4.27s-4.288-6.442-4.288-10.308v-56.956c0-2.005.675-3.951 1.916-5.529 1.242-1.577 2.979-2.695 4.934-3.174z" fill="#335873"/><path d="m930.79 153.121h-56.7c-4.014.001-7.914 1.338-11.077 3.799-3.164 2.461-5.41 5.905-6.383 9.783l-37 143.246h87.82l36.24-140.129c.489-1.964.527-4.012.111-5.993-.415-1.98-1.274-3.841-2.511-5.446-1.238-1.604-2.823-2.91-4.637-3.821s-3.812-1.403-5.843-1.439z" fill="#335873"/><path d="m951.46 169.142-36.41 140.807h-119.82l13.69-54.656 46.69-11.62.83-.219c4.312-1.188 8.376-3.134 12-5.745 9.14-6.652 17.55-16.689 20.09-26.825l12.44-44.938c.963-3.888 3.206-7.342 6.37-9.813 3.165-2.471 7.069-3.815 11.09-3.819h17.59v.259c.866-.149 1.742-.229 2.62-.239 2.035.039 4.035.536 5.851 1.453 1.815.918 3.398 2.232 4.631 3.845s2.084 3.482 2.489 5.468c.405 1.987.353 4.039-.151 6.003z" fill="#2c415c"/><path d="m681.43 341.345h81.2c3.368 0 6.599-1.332 8.98-3.704 2.382-2.371 3.72-5.588 3.72-8.941v-21.05c0-1.661-.328-3.305-.967-4.84-.638-1.534-1.573-2.928-2.753-4.102-1.179-1.175-2.579-2.106-4.12-2.741-1.541-.636-3.192-.963-4.86-.963h-81.2c-3.366.003-6.594 1.336-8.974 3.707-2.379 2.372-3.716 5.587-3.716 8.939v21.06c.003 3.35 1.34 6.562 3.72 8.931 2.379 2.37 5.605 3.702 8.97 3.704z" fill="#2c415c"/><path d="m680.75 292.006c-2.387 0-4.676.944-6.364 2.625-1.688 1.68-2.636 3.96-2.636 6.336v26.885c0 2.377.948 4.656 2.636 6.337s3.977 2.625 6.364 2.625h73.6v-44.808z" fill="#335873"/><path d="m709.27 336.855h7.51l18-44.808h-7.5z" fill="#2c415c"/><path d="m770.82 336.855h-22.47l4.5-44.808h18z" fill="#2c415c"/><path d="m851.44 189.795c2.709.534 5.285 1.595 7.581 3.122s4.267 3.49 5.8 5.776c1.534 2.286 2.6 4.851 3.136 7.548.537 2.697.535 5.473-.007 8.168l-9.08 45.446c-.544 2.722-2.151 5.119-4.469 6.661s-5.157 2.105-7.891 1.563c-2.734-.541-5.141-2.142-6.69-4.45s-2.114-5.134-1.57-7.857z" fill="#2c415c"/><path d="m828.16 228.867c2.318-1.542 3.926-3.938 4.47-6.661.543-2.723-.021-5.549-1.57-7.857s-3.955-3.909-6.689-4.451c-2.735-.541-5.573.021-7.891 1.563l-47.44 31.565c-2.249 1.57-3.792 3.955-4.297 6.644s.067 5.468 1.594 7.741c1.526 2.274 3.887 3.863 6.575 4.425 2.688.563 5.491.055 7.808-1.414z" fill="#4e6b44"/></g><path d="m818.58 182.875h23.77.02c1.334-.001 2.651.293 3.856.861 1.206.567 2.269 1.395 3.114 2.422s1.45 2.228 1.772 3.517.352 2.632.088 3.934l-12.85 64.016h-42l4.54-38.625-1.89-7.5c-.483-1.45-.783-3.999-.5-5.5s1.412-4.323 2.39-5.5l10.42-9.988v-6.054l.321-.187c2.2-.922 4.562-1.396 6.949-1.396z" fill="#4e6b44"/><path clip-rule="evenodd" d="m800.93 210.067c-.486-1.45-.592-3-.306-4.503.285-1.502.952-2.907 1.936-4.08l8.79-10.953v-6.054c-2.064.912-3.942 2.195-5.54 3.783l-.14.13c-.545.536-1.05 1.112-1.51 1.722l-9.14 11.362c-.25.3-.48.616-.69.946-.199.321-.38.653-.54.995-.99 2.08-1.13 4.462-.39 6.642l3.17 8.962-7.74 38.614h7.52l7.77-38.634z" fill="#678c5a" fill-rule="evenodd"/><path clip-rule="evenodd" d="m818.86 262.105c2.373 0 4.693-.701 6.667-2.014 1.973-1.313 3.511-3.179 4.42-5.363.908-2.183 1.146-4.585.683-6.903s-1.606-4.447-3.285-6.118c-1.678-1.671-3.816-2.809-6.144-3.27s-4.74-.225-6.933.68c-2.193.904-4.067 2.435-5.385 4.4-1.319 1.965-2.023 4.276-2.023 6.639 0 3.169 1.264 6.208 3.515 8.449 2.25 2.241 5.303 3.5 8.485 3.5z" fill="#4e6b44" fill-rule="evenodd"/><path clip-rule="evenodd" d="m822.05 292.007 14.34-35.847h-1.5l-3 7.468h-105.7c-1.876.142-3.678.794-5.208 1.884s-2.731 2.577-3.472 4.3l-33.36 83.522h19.12l24.88-61.297z" fill="#23252b" fill-rule="evenodd"/><path d="m730.48 256.131h-1.5c-7.51 0-15.91 5.974-18.89 13.452l-33.44 83.722h7.5l33.36-83.493c.741-1.722 1.942-3.209 3.472-4.3 1.53-1.09 3.332-1.741 5.208-1.883h105.72l3-7.468z" fill="#282d3b"/><path d="m650.26 371.247h52c.265 0 .52-.105.707-.291.188-.187.293-.44.293-.704v-16.928h-26.61l-16.45 7.1c-6.34 2.838-10.53 3.505-10.94 9.768-.008.136.012.272.058.399.047.128.119.245.213.344s.207.178.332.231c.126.054.261.082.397.081z" fill="#453a29"/><path d="m680.01 371.246h58c.265 0 .52-.105.707-.291.188-.187.293-.44.293-.704v-16.928l-25.19-2.887-23.89 9.957c-6.33 2.838-10.52 3.505-10.94 9.768-.013.14.004.281.05.413.046.133.119.255.216.357.096.103.213.184.343.238s.27.081.411.077z" fill="#695532"/><path clip-rule="evenodd" d="m767.76 269.582-52.93 79.33c-.121.185-.201.394-.232.612-.031.219-.013.441.052.652.064.211.175.405.324.569.148.164.331.293.536.378l4.5 1.882 19.17 7.906 52.71-78.982c1.203-1.8 1.952-3.861 2.185-6.01.234-2.15-.057-4.323-.845-6.337z" fill="#23252b" fill-rule="evenodd"/><path d="m785.47 263.598h3.19l-.42-.329c-1.476-.983-3.132-1.666-4.873-2.012-1.741-.345-3.534-.345-5.275 0s-3.398 1.028-4.873 2.011c-1.476.982-2.743 2.245-3.729 3.716l-55.66 83.482 6.26 2.589 55.41-83.034c2.36-3.545 5.46-6.423 9.97-6.423z" fill="#282d3b"/><path clip-rule="evenodd" d="m791.84 253.133c0-5.785-6.73-10.455-15-10.455s-15 4.67-15 10.455z" fill="#ffc680" fill-rule="evenodd"/><path clip-rule="evenodd" d="m837.82 249.898 10.91-54.337c.349-1.678 1.114-3.242 2.227-4.548 1.113-1.307 2.538-2.314 4.143-2.93-.568-.232-1.158-.408-1.76-.528-2.672-.521-5.442.029-7.709 1.53s-3.849 3.831-4.401 6.485l-10.88 54.328c-.352 1.801-.212 3.664.407 5.393.618 1.729 1.692 3.26 3.109 4.434 1.417 1.173 3.125 1.946 4.945 2.237 1.819.291 3.685.09 5.399-.583-2.246-.867-4.116-2.49-5.284-4.588-1.167-2.098-1.559-4.537-1.106-6.893z" fill="#678c5a" fill-rule="evenodd"/><path clip-rule="evenodd" d="m850.54 253.879 10.91-54.347c.72-.903 1.208-1.967 1.423-3.1.214-1.134.149-2.302-.19-3.404-.34-1.102-.944-2.106-1.76-2.924s-1.82-1.427-2.925-1.773c-1.104-.346-2.277-.419-3.416-.213-1.14.206-2.212.685-3.124 1.395-.912.711-1.637 1.631-2.113 2.683-.475 1.051-.686 2.202-.615 3.353l-10.91 54.347c-.72.904-1.208 1.968-1.423 3.101s-.149 2.301.191 3.404c.339 1.102.943 2.106 1.759 2.924s1.82 1.426 2.925 1.772c1.104.346 2.277.419 3.416.214 1.14-.206 2.212-.685 3.124-1.396.912-.71 1.637-1.631 2.113-2.682.475-1.052.686-2.203.615-3.354z" fill="#4e6b44" fill-rule="evenodd"/><path clip-rule="evenodd" d="m824.87 253.133c0-5.785-6.73-10.455-15-10.455s-15 4.67-15 10.455z" fill="#ffc680" fill-rule="evenodd"/><path clip-rule="evenodd" d="m765.56 205.299h-46.28c-.466 0-.925.108-1.342.315-.416.208-.778.509-1.058.88-.279.371-.468.801-.552 1.258-.083.456-.058.925.072 1.37l13.25 44.808c.181.624.56 1.173 1.082 1.563.521.39 1.156.6 1.808.598h46.27c.469.004.931-.102 1.352-.309.42-.206.785-.508 1.067-.881.282-.372.473-.805.556-1.265.084-.459.058-.931-.075-1.378l-13.27-44.808c-.182-.621-.561-1.166-1.08-1.554s-1.151-.597-1.8-.597z" fill="#606060" fill-rule="evenodd"/><path clip-rule="evenodd" d="m770.82 250.146h39c.398 0 .78.158 1.061.438s.439.66.439 1.056v2.987c0 .396-.158.776-.439 1.056-.281.281-.663.438-1.061.438h-39z" fill="#606060" fill-rule="evenodd"/><path clip-rule="evenodd" d="m786.49 266.088 93.92-33.118c9.92-2.469 16.92-8.045 22.6-15.075 1.212-1.487 2.321-3.054 3.32-4.69 2.856-4.209 4.941-8.888 6.16-13.821l10.17-37.768c.176-.733.406-1.452.69-2.151.036-.127.083-.25.14-.368.291-.685.625-1.35 1-1.992l.09-.139c1.194-2.075 2.793-3.891 4.703-5.341 1.91-1.451 4.092-2.506 6.417-3.103 1.469-.407 2.986-.618 4.51-.627h6.78c2.053-.003 4.08.462 5.926 1.357s3.463 2.198 4.727 3.809 2.142 3.488 2.568 5.488.388 4.071-.111 6.054l-37.47 148.534c-2.388 9.76-8 18.439-15.936 24.641-7.936 6.203-17.735 9.571-27.824 9.562h-90c-2.387 0-4.676-.944-6.364-2.625-1.688-1.68-2.636-3.96-2.636-6.336v-63.588c-.013-1.974.628-3.897 1.826-5.471 1.197-1.574 2.882-2.71 4.794-3.232z" fill="#2c415c" fill-rule="evenodd"/><path clip-rule="evenodd" d="m924.35 147.875c-4.016-.001-7.917 1.335-11.083 3.796s-5.414 5.906-6.387 9.786l-12.4 44.629c-.81 2.8-2.04 5.462-3.65 7.896-6.43 10.196-17 16.529-28.42 20.422l-93.78 32.71c-1.949.485-3.679 1.605-4.915 3.182s-1.907 3.521-1.905 5.521v56.926c0 1.915.379 3.812 1.116 5.581.736 1.769 1.815 3.377 3.176 4.731 1.36 1.353 2.975 2.427 4.752 3.159 1.778.732 3.683 1.108 5.606 1.107h22.16c-1.923.001-3.827-.375-5.604-1.107s-3.391-1.806-4.751-3.16-2.438-2.962-3.173-4.731-1.113-3.665-1.112-5.58v-57.952c.075-2 .796-3.924 2.058-5.483 1.261-1.559 2.995-2.671 4.942-3.17l93.93-33.168c9.69-3.275 16.92-8.045 22.62-15.075 2.827-3.256 4.939-7.065 6.2-11.182l13.45-45.097c.773-3.151 2.391-6.034 4.68-8.342 2.29-2.308 5.165-3.953 8.32-4.762 1.466-.406 2.979-.617 4.5-.627z" fill="#335873" fill-rule="evenodd"/><path clip-rule="evenodd" d="m761.06 205.298h-51.28c-.238-.009-.475.038-.691.137-.216.1-.405.249-.551.436-.147.187-.247.406-.291.638-.045.233-.034.473.033.701l13.81 46.799c.185.631.573 1.183 1.104 1.572.532.389 1.177.592 1.836.579h53.32l-14.39-48.681c-.177-.63-.557-1.184-1.081-1.578-.523-.393-1.163-.605-1.819-.603z" fill="#8a8a8a" fill-rule="evenodd"/><path d="m743.54 226.229h-3.35c-.465 0-.923.108-1.338.315-.416.207-.778.507-1.057.876-.279.37-.468.799-.552 1.254-.085.455-.062.924.067 1.368l.86 2.987c.178.625.556 1.174 1.075 1.566.52.391 1.153.604 1.805.605h3.3c.465.001.925-.106 1.342-.312.416-.206.779-.506 1.06-.876.28-.37.47-.8.555-1.255.085-.456.062-.925-.067-1.371l-.86-2.987c-.176-.618-.548-1.162-1.059-1.553-.512-.391-1.136-.608-1.781-.617z" fill="#c0c0c0"/><path clip-rule="evenodd" d="m785 132.56-.12.22c-1 1.969-1.476 4.16-1.381 6.365s.756 4.348 1.922 6.225c1.165 1.877 2.795 3.424 4.733 4.494s4.12 1.626 6.336 1.615h36.68c4.285-4.277 7.683-9.352 10-14.936 1.275-3.086 2.038-6.358 2.26-9.688l-45.87-10.824c-6.014 4.377-10.986 10.021-14.56 16.529z" fill="#23252b" fill-rule="evenodd"/><path clip-rule="evenodd" d="m847.35 145.494h-46.54l-7.14 24.396c-.395 1.337-.471 2.748-.223 4.12.249 1.373.816 2.668 1.656 3.784s1.929 2.021 3.182 2.643c1.253.623 2.635.946 4.035.943h35.29c1.08-.011 2.119-.409 2.928-1.12.81-.711 1.336-1.688 1.482-2.753z" fill="#23252b" fill-rule="evenodd"/><path d="m827.5 182-2-5.5-4.15-19.047h-7l4.94 25.421c.253 1.221.906 2.323 1.856 3.134s2.144 1.285 3.394 1.347h7c0-1.347-1.09-1.544-2.04-2.355s-1.747-1.78-2-3z" fill="#ffc680"/><path d="m837.66 185.991c.343-.434.577-.943.685-1.484.108-.542.086-1.101-.065-1.633l-4.93-25.421h-12l4.94 25.421c.253 1.221.906 2.323 1.856 3.134s2.144 1.285 3.394 1.347h3.24c.554.014 1.103-.103 1.604-.34.5-.237.937-.588 1.276-1.024z" fill="#ebb66f"/><path d="m824.9 175.735c-2.956.391-5.962.145-8.814-.722-2.853-.867-5.485-2.333-7.718-4.301s-2.657-4.998-3.868-7.712-1.389-5.531-1.358-8.5l.858-15.5c-.001-1.749-2.266-3.942-1.523-5.527s1.826-2.988 3.173-4.11c-2.647.607-5.009 2.089-6.7 4.205s-2.611 4.741-2.61 7.445v16.44c-.006 3.42.83 6.788 2.435 9.811 1.605 3.024 3.93 5.609 6.772 7.529 2.841 1.92 6.113 3.117 9.527 3.486s6.867-.101 10.056-1.369z" fill="#ffc680"/><path d="m838.35 157.453v-16.44c0-3.169-1.264-6.208-3.515-8.449-2.25-2.241-5.302-3.5-8.485-3.5h-18c-1.18-.096-2.366.11-3.444.599s-2.012 1.245-2.714 2.195-1.147 2.063-1.295 3.234c-.147 1.17.009 2.358.453 3.452v16.449c-.545 2.609-.522 5.304.067 7.903.59 2.6 1.733 5.043 3.351 7.165 1.618 2.123 3.675 3.875 6.031 5.139s4.957 2.01 7.627 2.188c2.67.179 5.347-.215 7.852-1.155 2.504-.939 4.777-2.403 6.665-4.291 1.889-1.889 3.348-4.158 4.281-6.656s1.317-5.165 1.126-7.824z" fill="#ebb66f"/><path clip-rule="evenodd" d="m859 153.709-3.84-17.704c-1.746-8.604-6.84-16.171-14.169-21.047-7.33-4.877-16.3-6.668-24.951-4.981l-8 1.583-1.29.298c-3.291 1.037-6.3 2.808-8.8 5.178-1 .877 6.57 15.215 6.57 15.215 1.945 4.332 4.978 8.092 8.807 10.917 3.829 2.826 8.325 4.621 13.053 5.214.493.089.99.149 1.49.179h11.48l-7.23 34.313c4.507-.307 8.861-1.753 12.65-4.202l3.61-2.509c3.04-2.062 5.581-4.771 7.44-7.931s2.99-6.692 3.31-10.341c.152-1.393.108-2.801-.13-4.182z" fill="#23252b" fill-rule="evenodd"/><path clip-rule="evenodd" d="m826.35 148.381c.496.089.997.149 1.5.18h9.25v-3.814h-5.5c-.43 0-.94-.1-1.49-.159-4.734-.59-9.236-2.384-13.072-5.21-3.836-2.825-6.876-6.586-8.828-10.921l-.73-1.504c-1.508.822-2.908 1.825-4.17 2.987l1.14 2.33c1.952 4.334 4.992 8.093 8.828 10.915 3.837 2.823 8.339 4.612 13.072 5.196z" fill="#2c415c" fill-rule="evenodd"/><path d="m836.13 154.466c2.523-.004 4.988-.753 7.084-2.151 2.095-1.399 3.728-3.384 4.691-5.706.962-2.322 1.212-4.876.718-7.34-.495-2.463-1.712-4.725-3.497-6.5-1.786-1.775-4.059-2.983-6.534-3.472-2.475-.488-5.039-.235-7.37.727-2.33.962-4.322 2.591-5.723 4.68-1.401 2.088-2.149 4.544-2.149 7.056 0 1.67.331 3.324.973 4.867.643 1.543 1.584 2.944 2.771 4.124 1.187 1.181 2.597 2.116 4.147 2.753 1.55.638 3.212.964 4.889.962z" fill="#23252b"/><path clip-rule="evenodd" d="m807.01 167.918c-.137.003-.27.042-.386.114s-.211.173-.274.294c-.064.118-.097.25-.097.384 0 .133.033.265.097.383.689 1.014 1.617 1.845 2.703 2.42 1.086.574 2.297.874 3.527.874s2.441-.3 3.527-.874c1.086-.575 2.014-1.406 2.703-2.42.069-.116.105-.249.105-.383 0-.135-.036-.268-.105-.384-.061-.12-.154-.221-.268-.293-.115-.072-.247-.112-.382-.115z" fill="#fff" fill-rule="evenodd"/><path d="m836.88 160.451c1.187 0 2.347-.351 3.334-1.007.986-.657 1.755-1.59 2.209-2.681.454-1.092.573-2.293.342-3.452-.232-1.159-.803-2.224-1.642-3.059-.839-.836-1.909-1.405-3.072-1.635-1.164-.231-2.371-.112-3.467.34s-2.033 1.218-2.693 2.2c-.659.983-1.011 2.138-1.011 3.319 0 1.585.632 3.104 1.757 4.225 1.126 1.12 2.652 1.75 4.243 1.75z" fill="#ebb66f"/><path d="m836.88 157.453c.593 0 1.174-.175 1.667-.504.493-.328.878-.794 1.105-1.34s.286-1.147.171-1.726c-.116-.58-.402-1.112-.822-1.53-.419-.417-.954-.702-1.536-.817s-1.185-.056-1.733.17-1.017.609-1.346 1.1c-.33.491-.506 1.069-.506 1.66 0 .792.316 1.552.879 2.112.562.56 1.325.875 2.121.875z" fill="#ffc680"/><path clip-rule="evenodd" d="m836.88 161.943c-.399 0-.781.157-1.064.437s-.443.66-.446 1.057v2.987c.043.367.219.705.495.95.277.245.635.381 1.005.381.371 0 .728-.136 1.005-.381.276-.245.453-.583.495-.95v-2.987c0-.394-.157-.773-.436-1.053s-.658-.438-1.054-.441z" fill="#fff" fill-rule="evenodd"/><path clip-rule="evenodd" d="m836.88 160.451c-.399 0-.781.157-1.064.437s-.443.66-.446 1.057v2.987h3v-2.987c0-.395-.157-.773-.436-1.053s-.658-.438-1.054-.441z" fill="#fff" fill-rule="evenodd"/><path clip-rule="evenodd" d="m789.35 132.779.13-.209c3.364-5.88 7.749-11.119 12.95-15.474 2.522-2.336 5.52-4.102 8.79-5.178l1.29-.299 8-1.583c1.407-.27 2.83-.446 4.26-.528-2.931-.218-5.877-.04-8.76.528l-8 1.583-1.29.299c-3.272 1.077-6.274 2.843-8.8 5.178-5.221 4.372-9.622 9.631-13 15.533l-.12.209c-.925 1.845-1.391 3.883-1.36 5.945.031 2.061.559 4.084 1.539 5.9s2.383 3.371 4.092 4.535c1.709 1.163 3.674 1.901 5.729 2.151v-1.494c-2.976-1.571-5.214-4.242-6.234-7.439-1.019-3.197-.737-6.665.784-9.657z" fill="#2c415c" fill-rule="evenodd"/><path d="m799.35 149.984h-6c-.398 0-.779.158-1.06.438-.282.28-.44.66-.44 1.056v2.987c0 .396.158.776.44 1.056.281.28.662.438 1.06.438h6c.398 0 .779-.158 1.061-.438.281-.28.439-.66.439-1.056v-2.987c0-.396-.158-.776-.439-1.056-.282-.28-.663-.438-1.061-.438z" fill="#ffc680"/><path d="m826.35 146.988h-13.51c-.796 0-1.559.315-2.121.875-.563.56-.879 1.32-.879 2.113v1.493c-.92-.5-1.952-.762-3-.762s-2.08.262-3 .762v-1.493c0-.793-.316-1.553-.879-2.113-.562-.56-1.325-.875-2.121-.875h-12c-.399.003-.78.163-1.061.444-.281.282-.439.663-.439 1.06v.687c.001.244.061.484.176.699s.281.399.484.536c.246.167.451.389.596.648.146.259.23.549.244.845v2.191c.001.63.127 1.254.371 1.836.243.582.599 1.11 1.048 1.555.448.444.98.797 1.566 1.037.585.24 1.212.363 1.845.361h5.37c.633.002 1.259-.121 1.844-.361s1.116-.593 1.564-1.038c.447-.445.803-.973 1.045-1.555s.367-1.205.367-1.835c.92-.5 1.952-.763 3-.763s2.08.263 3 .763c0 .63.125 1.253.367 1.835.243.582.598 1.11 1.045 1.555.448.445.98.798 1.564 1.038.585.24 1.212.363 1.844.361h5.37c.633.002 1.26-.121 1.846-.361.585-.24 1.117-.593 1.565-1.037.449-.445.805-.973 1.048-1.555.244-.582.37-1.206.371-1.836v-1.782c-.004-.393.118-.777.348-1.096s.557-.556.932-.677l.7-.229c.294-.102.549-.293.728-.547.18-.253.275-.557.272-.867v-.358c.008-.202-.025-.404-.097-.593-.073-.188-.183-.361-.324-.506s-.31-.26-.498-.338c-.187-.079-.388-.118-.591-.117zm-25.53 7.478c0 .396-.158.776-.439 1.056-.281.281-.663.438-1.061.438h-6c-.398 0-.779-.157-1.06-.438-.282-.28-.44-.66-.44-1.056v-2.987c0-.396.158-.776.44-1.056.281-.28.662-.438 1.06-.438h6c.398 0 .78.158 1.061.438s.439.66.439 1.056zm21 0c0 .396-.158.776-.439 1.056-.281.281-.663.438-1.061.438h-6c-.398 0-.779-.157-1.06-.438-.282-.28-.44-.66-.44-1.056v-2.987c0-.396.158-.776.44-1.056.281-.28.662-.438 1.06-.438h6c.398 0 .78.158 1.061.438s.439.66.439 1.056z" fill="#cc8729"/><path clip-rule="evenodd" d="m815.11 152.973h.75c.398 0 .779.157 1.061.437.281.28.439.66.439 1.056v.747c0 .198-.079.388-.22.528-.14.14-.331.219-.53.219h-1.5c-.099.001-.197-.017-.288-.054-.092-.037-.175-.092-.245-.162s-.125-.152-.162-.244c-.038-.091-.056-.188-.055-.287v-1.494c0-.198.079-.388.22-.528s.331-.218.53-.218z" fill="#23252b" fill-rule="evenodd"/><path clip-rule="evenodd" d="m794.09 152.973h.75c.398 0 .78.157 1.061.437s.439.66.439 1.056v.747c.001.099-.017.196-.054.287-.038.092-.092.174-.162.244s-.154.125-.245.162c-.092.037-.19.055-.289.054h-1.5c-.098 0-.195-.02-.285-.057-.091-.038-.173-.093-.242-.162-.069-.07-.123-.152-.159-.243-.037-.09-.055-.187-.054-.285v-1.494c0-.196.078-.384.216-.524.139-.14.327-.22.524-.222z" fill="#23252b" fill-rule="evenodd"/><path d="m949.83 41.54h-54.48c-.53 0-1.039.2099-1.414.5833-.375.3735-.586.88-.586 1.4082v67.7795c0 .528.211 1.035.586 1.408.375.374.884.584 1.414.584h56.51c.531 0 1.039-.21 1.414-.584.375-.373.586-.88.586-1.408v-67.7695c0-.5282-.211-1.0347-.586-1.4082s-.883-.5833-1.414-.5833zm0 67.77h-52.48v-63.7273h52.48z" fill="#191920"/><path d="m897.35 45.5527v63.7273h52.48v-63.7273zm46.42 57.7523h-40.36v-51.7181h40.36z" fill="#313130" opacity=".75"/><path d="m936.71 79.1691c-.647.0018-1.268.2555-1.73.7069l-7.26 7.239-11.31-11.2518c-.226-.2245-.494-.4026-.789-.5239s-.612-.1835-.931-.183h-.18c-.321-.0013-.639.0606-.936.1819-.296.1213-.566.2997-.794.525l-9.37 9.34v18.0828h40.36v-18.0828l-5.34-5.3272c-.459-.4499-1.076-.7035-1.72-.7069z" fill="#191920"/><path clip-rule="evenodd" d="m930.8 68.7738c-1.056-.2158-2.026-.7357-2.789-1.495-.762-.7593-1.284-1.7248-1.501-2.7767-.208-1.0368-.114-2.1111.27-3.0967.04-.1023.045-.2147.014-.3199-.031-.1053-.096-.1974-.185-.2621s-.197-.0983-.307-.0957-.216.0413-.302.1101c-.689.5199-1.258 1.1808-1.67 1.9383-.411.7574-.654 1.5938-.713 2.4528s.068 1.7205.371 2.5267c.304.8061.778 1.538 1.39 2.1465.611.6084 1.347 1.0792 2.157 1.3806s1.675.4265 2.538.3668c.863-.0598 1.702-.3029 2.462-.7131.761-.4102 1.424-.9778 1.945-1.6647.069-.0854.108-.1911.111-.3007.002-.1096-.031-.217-.096-.3056-.065-.0885-.158-.1532-.264-.184-.105-.0308-.218-.026-.321.0136-.989.3852-2.068.4819-3.11.2788z" fill="#335873" fill-rule="evenodd"/></svg>
