<?xml version="1.0" standalone="no"?>
<!DOCTYPE svg PUBLIC "-//W3C//DTD SVG 20010904//EN"
 "http://www.w3.org/TR/2001/REC-SVG-20010904/DTD/svg10.dtd">
<svg version="1.0" xmlns="http://www.w3.org/2000/svg"
 width="721.000000pt" height="721.000000pt" viewBox="0 0 721.000000 721.000000"
 preserveAspectRatio="xMidYMid meet">

<g transform="translate(0.000000,721.000000) scale(0.100000,-0.100000)"
fill="#000000" stroke="none">
<path d="M3180 7185 c-715 -89 -1381 -383 -1927 -850 -51 -44 -93 -82 -93 -86
0 -3 35 -10 78 -16 l77 -10 105 87 c527 433 1105 685 1770 769 407 52 817 30
1209 -65 l144 -34 48 32 c27 18 49 36 49 39 0 15 -317 90 -514 121 -173 27
-763 35 -946 13z"/>
<path d="M4657 7010 c-25 -15 -47 -32 -50 -38 -4 -5 13 -15 36 -21 179 -53
557 -226 731 -336 49 -30 90 -54 91 -53 2 2 -2 34 -9 73 -13 81 1 69 -230 186
-148 75 -310 144 -443 190 l-82 27 -44 -28z"/>
<path d="M3999 6723 c-112 -113 -219 -211 -237 -219 -40 -18 -72 -67 -72 -111
l0 -33 -109 0 c-63 0 -112 -4 -116 -10 -3 -5 -46 -10 -96 -10 -53 0 -89 -4
-89 -10 0 -6 108 -10 303 -10 l302 0 85 103 c46 56 165 182 262 279 98 97 175
179 171 181 -7 4 -95 24 -184 41 -11 2 -92 -72 -220 -201z"/>
<path d="M4376 6785 c-51 -46 -136 -130 -191 -187 -93 -97 -235 -262 -235
-271 0 -3 9 -7 20 -10 20 -5 20 -12 18 -279 l-3 -273 -347 -5 -347 -5 39 -57
c121 -181 158 -501 104 -903 -8 -60 -18 -131 -21 -157 l-6 -48 174 0 173 0
206 205 206 205 85 0 85 0 39 40 39 40 168 0 169 0 50 -47 c27 -25 52 -43 56
-39 8 8 -296 316 -312 316 -6 0 -71 -61 -145 -135 l-135 -135 -95 0 -96 0 -42
43 -42 43 0 95 0 95 43 42 42 41 160 3 160 3 3 62 c3 63 3 63 -45 114 l-47 51
51 49 52 49 83 0 83 0 72 72 73 72 0 76 c0 75 0 76 -40 115 -22 21 -40 44 -40
50 0 5 93 103 208 217 l207 207 95 3 95 3 -105 57 c-168 91 -399 186 -593 243
l-79 23 -92 -83z m62 -824 l3 -95 -88 -88 -88 -88 -97 0 -98 0 0 92 0 93 93
93 92 93 90 -3 90 -3 3 -94z"/>
<path d="M2506 6790 c-76 -27 -119 -49 -143 -72 l-33 -32 74 -76 74 -75 7 -88
7 -88 -96 -97 -95 -97 -163 163 -163 162 -75 -75 -74 -75 -86 0 -86 0 -39 -40
c-21 -22 -43 -40 -48 -40 -4 0 -26 -14 -48 -32 l-40 -32 82 -22 c45 -12 89
-19 98 -17 11 3 38 -17 74 -54 l57 -58 88 88 87 87 98 0 97 0 0 -80 0 -80 71
0 72 0 96 -95 96 -94 -40 -41 -40 -41 110 54 c191 95 309 123 468 114 56 -4
114 -10 130 -13 l27 -6 0 123 0 124 -107 -3 -108 -3 -90 90 -90 91 88 88 87
87 0 71 c0 68 -1 71 -38 107 -37 36 -39 37 -117 37 -79 0 -80 0 -120 39 l-40
39 -109 -38z"/>
<path d="M5502 6618 c4 -29 11 -63 13 -74 3 -13 41 -47 92 -85 128 -91 293
-232 413 -353 57 -58 111 -106 119 -106 21 0 121 33 121 39 0 10 -229 233
-313 305 -122 104 -428 326 -450 326 -2 0 0 -24 5 -52z"/>
<path d="M3190 6015 l0 -215 380 0 380 0 0 215 0 215 -380 0 -380 0 0 -215z"/>
<path d="M1013 6107 c-166 -172 -339 -392 -457 -581 l-49 -79 40 -80 40 -80
71 120 c164 277 376 549 566 724 l61 57 -60 6 c-33 4 -72 9 -86 11 -23 3 -41
-11 -126 -98z"/>
<path d="M1382 6107 l-52 -53 55 -54 55 -54 85 84 c56 55 81 87 72 91 -10 5
-147 39 -159 39 -2 0 -27 -24 -56 -53z"/>
<path d="M6232 5973 c-38 -13 -42 -17 -30 -32 8 -9 37 -43 64 -76 159 -189
353 -495 440 -691 26 -58 26 -59 39 -34 7 14 21 53 30 87 l17 61 -52 93 c-138
244 -407 610 -448 608 -10 0 -36 -7 -60 -16z"/>
<path d="M2810 5906 c-164 -35 -400 -155 -530 -271 -40 -36 -50 -80 -16 -72
123 29 173 37 243 37 165 0 262 -38 369 -144 117 -117 179 -273 210 -526 15
-127 19 -334 6 -328 -5 2 -205 209 -446 461 -241 251 -441 457 -444 457 -4 0
-83 -76 -177 -170 -133 -133 -172 -167 -182 -158 -8 7 -17 7 -22 2 -11 -11
-321 -845 -321 -861 0 -10 52 -13 225 -13 l225 0 0 -70 c0 -38 3 -70 8 -69 4
0 27 25 52 55 63 76 146 139 242 184 179 82 353 84 595 5 22 -7 22 -5 25 76
l3 84 240 5 240 5 12 60 c38 188 55 550 33 695 -29 188 -67 286 -140 362 -36
38 -53 48 -78 48 l-32 0 0 65 0 64 -37 11 c-61 18 -230 21 -303 6z"/>
<path d="M2180 5665 c29 -31 32 -31 67 0 l28 24 -59 1 -59 0 23 -25z"/>
<path d="M456 5358 c-84 -144 -263 -559 -282 -656 -6 -28 -3 -30 70 -59 l75
-31 47 141 c42 127 87 239 168 422 l27 61 -40 82 -40 83 -25 -43z"/>
<path d="M1602 5307 c-29 -29 -52 -58 -52 -65 0 -7 -6 -12 -13 -12 -6 0 -129
-117 -272 -260 l-260 -260 -246 0 c-243 0 -246 0 -267 -23 -24 -25 -56 -118
-44 -129 4 -3 79 -40 168 -81 153 -72 645 -324 715 -366 19 -12 37 -21 42 -21
4 0 7 51 7 114 l0 115 42 3 41 3 3 130 c5 291 97 540 267 722 l60 64 -59 60
c-32 32 -63 59 -69 59 -6 0 -34 -24 -63 -53z"/>
<path d="M6792 5118 l-34 -103 42 -110 c102 -266 182 -596 205 -842 6 -62 10
-72 28 -77 42 -12 117 -76 142 -123 l26 -48 -6 85 c-26 384 -151 860 -319
1212 l-51 108 -33 -102z"/>
<path d="M5290 4993 c-80 -81 -129 -133 -110 -115 35 32 37 32 136 32 l100 0
39 -40 39 -40 148 0 147 0 36 31 c34 30 35 33 35 105 l0 74 -158 0 -158 0 -49
50 c-27 28 -52 50 -55 50 -3 0 -70 -66 -150 -147z"/>
<path d="M6430 4755 l-24 -26 69 -69 69 -70 80 0 c79 0 81 -1 118 -37 21 -20
40 -35 42 -32 3 3 -2 28 -10 57 l-16 52 -76 0 -77 0 -75 75 -76 76 -24 -26z"/>
<path d="M5843 4659 c-11 -11 -19 -119 -9 -119 2 0 21 -7 42 -16 l39 -16 -27
29 c-21 22 -28 40 -30 81 -2 43 -5 51 -15 41z"/>
<path d="M141 4598 c-24 -74 -70 -282 -91 -410 l-23 -137 78 -85 c43 -47 81
-86 85 -86 4 0 12 53 19 118 16 154 58 409 82 497 10 38 19 70 19 71 0 3 -148
64 -154 64 -2 0 -9 -15 -15 -32z"/>
<path d="M411 4444 l-14 -67 61 -59 60 -58 84 0 83 0 200 -200 200 -200 57 0
58 0 0 110 c0 61 3 110 7 110 4 0 17 -10 30 -22 13 -12 42 -24 66 -27 41 -6
42 -7 45 -48 2 -29 8 -43 18 -43 10 0 14 13 14 49 l0 49 -142 76 c-193 104
-757 384 -789 391 -24 6 -26 4 -38 -61z"/>
<path d="M2469 4439 c-81 -8 -180 -41 -256 -86 -51 -29 -223 -192 -223 -210 0
-6 78 -49 173 -95 508 -249 866 -557 1045 -899 27 -52 54 -110 61 -129 l11
-34 83 82 c45 45 89 82 98 82 9 0 101 -89 206 -198 l191 -198 108 -12 c140
-15 237 -42 349 -98 325 -158 487 -494 473 -981 -3 -109 -1 -122 15 -127 16
-4 17 -24 17 -255 l0 -251 25 10 c44 17 229 127 332 197 114 79 284 245 331
324 54 93 75 163 75 262 0 125 -7 128 -101 34 l-77 -77 -90 0 -90 0 -88 88
-87 87 0 81 0 80 -40 39 -40 39 0 79 0 80 -43 46 -44 47 0 166 -1 166 44 43
c43 42 44 45 44 106 0 62 0 63 -59 130 -32 38 -89 97 -125 133 -36 35 -66 73
-66 84 0 18 -41 73 -183 244 -64 77 -70 82 -86 68 -15 -13 -48 -16 -194 -16
l-176 0 -38 35 -38 35 -130 0 c-750 2 -973 4 -987 12 -17 8 -18 36 -18 364 l0
354 -27 11 c-47 18 -205 56 -253 61 -25 2 -79 1 -121 -3z m1271 -896 c0 -56
35 -136 74 -172 14 -14 26 -28 26 -33 0 -4 -131 -8 -292 -8 l-292 0 35 38 c53
56 70 88 75 145 3 29 7 58 10 65 2 9 48 12 184 12 l180 0 0 -47z"/>
<path d="M6680 4195 l-135 -135 -80 0 c-80 0 -81 0 -116 -36 l-34 -37 30 7
c17 4 35 14 41 21 17 22 274 41 392 29 52 -5 95 -7 97 -3 4 6 -32 255 -40 277
-2 6 -8 12 -12 12 -5 0 -69 -61 -143 -135z"/>
<path d="M6150 4108 l-34 -68 34 -35 c39 -40 56 -44 65 -15 3 11 11 20 18 20
6 0 -1 12 -16 28 -20 21 -27 39 -29 82 l-3 55 -35 -67z"/>
<path d="M1950 3935 c0 -152 1 -156 23 -164 12 -5 92 -79 177 -165 l155 -156
79 0 80 0 87 -85 86 -85 84 0 84 0 88 -88 87 -87 0 -85 0 -85 -85 -85 -85 -85
0 -80 0 -80 -160 -160 -160 -160 0 -80 0 -81 -55 -54 c-30 -29 -53 -55 -51
-58 2 -2 36 17 75 43 82 52 239 125 345 159 88 29 240 56 315 56 l56 0 -148
148 c-81 81 -147 152 -147 157 0 5 84 94 186 196 l186 186 -55 114 c-147 301
-383 543 -749 770 -153 95 -455 249 -489 249 -5 0 -9 -70 -9 -155z"/>
<path d="M347 4053 c-8 -14 -19 -187 -21 -341 -9 -723 235 -1448 684 -2027
130 -168 384 -435 413 -435 16 0 177 195 177 214 0 13 -26 48 -70 91 l-70 69
0 411 0 410 -200 200 -200 200 0 80 0 81 -40 39 -40 39 0 181 0 181 40 39 c39
38 40 41 40 105 0 63 -2 68 -38 103 -37 36 -39 37 -118 37 l-79 0 -165 165
-165 165 -72 0 c-39 0 -74 -3 -76 -7z"/>
<path d="M6490 3999 c-90 -10 -120 -22 -120 -51 0 -4 42 -9 93 -10 l92 -3 3
-95 2 -95 -245 -245 -245 -245 0 -155 0 -156 40 -39 40 -39 0 -90 0 -91 -132
-132 -133 -133 95 -95 95 -95 -183 -183 c-100 -100 -182 -185 -182 -189 0 -18
307 -74 460 -84 l105 -6 71 108 c107 164 137 218 223 396 221 455 323 906 324
1423 0 257 -4 290 -36 299 -42 12 -272 15 -367 5z m22 -1166 l48 -47 0 -91 0
-90 -80 -80 -80 -80 0 -80 0 -81 -55 -54 -55 -54 -50 49 -50 49 0 175 0 176
127 127 c70 71 132 128 138 128 5 0 31 -21 57 -47z"/>
<path d="M14 3915 c-13 -116 -10 -541 4 -670 70 -627 283 -1202 630 -1698 83
-119 92 -121 92 -22 0 33 5 111 11 172 l10 113 -61 97 c-202 322 -373 762
-445 1143 -41 219 -72 581 -60 700 l6 55 -89 95 -90 95 -8 -80z"/>
<path d="M7021 3717 c0 -123 -3 -259 -6 -303 -6 -74 -5 -78 10 -59 33 41 85
144 109 217 45 132 36 228 -26 308 -19 24 -66 60 -80 60 -4 0 -7 -100 -7 -223z"/>
<path d="M7197 3635 c-18 -91 -77 -220 -155 -340 -41 -64 -47 -82 -68 -197
-26 -146 -78 -348 -128 -494 l-34 -102 21 -78 c29 -114 29 -306 0 -389 -12
-33 -20 -61 -19 -63 6 -6 118 245 165 371 90 240 153 485 191 742 23 162 43
430 38 525 -3 63 -3 64 -11 25z"/>
<path d="M3193 2832 l-262 -267 150 -150 149 -150 270 270 270 270 -147 147
c-81 82 -152 148 -158 147 -5 0 -128 -120 -272 -267z"/>
<path d="M3553 2448 c-144 -145 -267 -264 -273 -266 -6 -2 -23 6 -36 19 -23
22 -33 23 -132 22 -177 -1 -382 -63 -582 -176 l-95 -54 -3 -276 -2 -277 -45 0
c-25 0 -45 -4 -45 -8 0 -12 134 -178 194 -241 101 -105 249 -211 375 -268 113
-51 217 -74 361 -80 217 -9 366 26 597 137 l123 59 2 248 3 248 372 3 371 2 7
116 c23 357 -87 676 -293 850 -73 63 -226 141 -327 167 -53 14 -231 37 -288
37 -15 0 -105 -83 -284 -262z m216 6 c20 -3 39 -6 44 -7 4 -1 -49 -58 -118
-127 -118 -118 -125 -123 -125 -95 0 34 -32 109 -50 120 -8 5 13 33 65 85 l77
78 35 -24 c19 -13 51 -26 72 -30z m-759 -604 l0 -280 -95 0 -95 0 0 280 0 280
95 0 95 0 0 -280z m564 263 c2 -10 3 -54 2 -98 l-3 -80 -69 -5 -69 -5 -3 -177
-2 -178 -95 0 -95 0 0 180 0 180 -75 0 -75 0 0 100 0 100 239 0 c220 0 240 -1
245 -17z m444 -84 c3 -95 2 -97 -22 -103 -32 -8 -57 -44 -90 -133 -57 -149
-139 -214 -283 -221 l-83 -5 0 96 c0 103 2 106 69 107 36 0 92 65 125 145 39
93 68 138 106 165 40 28 106 50 145 47 l30 -2 3 -96z m502 1 l0 -100 -116 0
-115 0 3 -32 3 -33 93 -3 c73 -2 92 -6 92 -17 0 -12 -18 -15 -95 -15 l-95 0 0
-35 0 -35 115 0 115 0 0 -95 0 -95 -210 0 -210 0 0 280 0 280 210 0 210 0 0
-100z"/>
<path d="M6778 2415 c-3 -5 -24 -54 -47 -108 -48 -112 -138 -281 -223 -416
-32 -52 -56 -96 -53 -99 7 -7 110 25 158 50 57 29 125 96 153 149 33 66 45
127 45 233 -1 90 -21 210 -33 191z"/>
<path d="M6774 1923 c-68 -90 -187 -156 -321 -178 -38 -6 -47 -14 -113 -101
-109 -145 -289 -344 -424 -466 -589 -537 -1318 -844 -2121 -894 l-110 -6 -51
-49 c-74 -69 -193 -144 -272 -170 -127 -42 -276 -23 -409 52 -64 37 -194 158
-263 244 -49 62 -53 64 -148 96 -408 134 -787 345 -1127 628 -27 22 -53 41
-57 41 -4 0 -40 -25 -80 -56 -40 -31 -85 -62 -100 -70 -15 -8 -28 -18 -28 -23
0 -12 182 -165 310 -260 451 -336 999 -569 1551 -660 228 -37 339 -46 604 -45
270 1 418 13 640 55 991 185 1861 772 2394 1616 70 112 166 283 158 283 -3 0
-17 -17 -33 -37z"/>
<path d="M5627 1783 c-7 -103 -28 -158 -98 -263 -116 -173 -303 -323 -619
-494 l-105 -57 -346 1 -345 1 -72 -146 c-70 -143 -185 -338 -225 -382 -11 -13
-18 -25 -16 -27 8 -8 220 13 347 35 804 134 1528 563 2042 1209 l52 65 -114
11 c-179 19 -442 70 -457 90 -3 5 -13 15 -22 22 -14 11 -17 4 -22 -65z m-1117
-877 c0 -34 18 -77 42 -103 l21 -23 -171 0 -171 0 24 37 c14 20 28 53 31 75
l7 38 108 0 c109 0 109 0 109 -24z"/>
<path d="M796 1733 c-4 -9 -9 -94 -13 -189 l-6 -173 58 -71 c33 -40 109 -123
169 -186 l111 -113 65 44 c36 24 82 59 104 77 l39 34 -73 69 c-114 110 -264
279 -360 407 -65 87 -90 113 -94 101z"/>
<path d="M4030 1275 l0 -215 380 0 380 0 0 215 0 215 -380 0 -380 0 0 -215z"/>
<path d="M1947 1412 c-25 -26 -27 -35 -27 -108 l0 -80 40 -39 41 -40 -3 -90
-3 -90 -94 -3 -95 -3 -88 88 -88 88 0 127 c0 70 -3 129 -7 131 -5 3 -45 -37
-89 -88 l-82 -92 107 -85 c461 -369 989 -598 1586 -689 86 -14 208 -22 362
-26 l231 -6 50 69 c28 38 72 105 99 149 66 111 173 327 167 337 -3 4 -18 8
-34 8 -15 0 -30 5 -32 11 -2 6 -35 -6 -78 -29 -105 -56 -248 -107 -370 -132
-89 -19 -128 -21 -260 -17 -130 4 -169 9 -245 31 -161 48 -327 140 -454 252
-75 67 -214 225 -258 295 l-38 59 -156 0 -155 0 -27 -28z"/>
<path d="M2720 390 c0 -18 162 -181 220 -220 183 -124 354 -127 537 -7 38 24
86 61 108 80 l40 36 -76 1 c-118 0 -321 18 -464 41 -128 21 -341 65 -357 75
-4 3 -8 0 -8 -6z"/>
</g>
</svg>
