<svg width="20" height="20" viewBox="0 0 20 20" fill="none" xmlns="http://www.w3.org/2000/svg">
<circle cx="10" cy="10" r="9" fill="white"/>
<path fill-rule="evenodd" clip-rule="evenodd" d="M10 20C15.5228 20 20 15.5228 20 10C20 4.47715 15.5228 0 10 0C4.47715 0 0 4.47715 0 10C0 15.5228 4.47715 20 10 20ZM4.85262 6.27826C4.53986 6.47204 4.29592 6.75378 4.15359 7.08561C4.12728 7.12141 4.11017 7.16276 4.10369 7.20623C4.0972 7.24971 4.10153 7.29405 4.11631 7.33559C4.1311 7.37712 4.15591 7.41464 4.18869 7.44504C4.22147 7.47544 4.26127 7.49785 4.30479 7.51039L9.78621 10.261C9.85454 10.2988 9.93189 10.3187 10.0106 10.3187C10.0893 10.3187 10.1667 10.2988 10.235 10.261L15.6468 7.5336C15.6968 7.51923 15.7425 7.49351 15.7801 7.45861C15.8177 7.4237 15.8461 7.38061 15.863 7.33292C15.8799 7.28523 15.8848 7.23433 15.8772 7.18445C15.8697 7.13456 15.8499 7.08715 15.8196 7.04615C15.6678 6.72251 15.4194 6.45014 15.1064 6.26402C14.7934 6.0779 14.43 5.98652 14.0629 6.00161H5.90314C5.53197 5.98793 5.16538 6.08447 4.85262 6.27826ZM15.3331 13.5834C15.67 13.3087 15.893 12.9257 15.9612 12.5047C15.9965 12.2229 16.0077 10.6202 15.9948 10.3366V8.96578C16.0007 8.91924 15.9943 8.87201 15.9761 8.82854C15.958 8.78507 15.9287 8.74678 15.891 8.71729C15.8533 8.6878 15.8084 8.66808 15.7607 8.65998C15.7129 8.65188 15.6638 8.65567 15.618 8.67099C15.5641 8.68396 15.5124 8.70428 15.4644 8.73134C13.7669 9.57471 12.0717 10.4258 10.379 11.2847C10.2646 11.3502 10.134 11.3848 10.001 11.3848C9.868 11.3848 9.73744 11.3502 9.62301 11.2847C7.92227 10.4243 6.21993 9.56543 4.51598 8.70813C4.21119 8.55725 4 8.67795 4 9.00524V12.2053C4.0016 12.3622 4.02419 12.5182 4.0672 12.6695C4.17414 13.0576 4.4128 13.3997 4.74487 13.6409C5.07694 13.8821 5.48316 14.0084 5.89834 13.9996H14.1277C14.5682 14.0058 14.9963 13.858 15.3331 13.5834Z" fill="#FBA42D"/>
</svg>
