<svg width="20" height="20" viewBox="0 0 20 20" fill="none" xmlns="http://www.w3.org/2000/svg">
<circle cx="10" cy="10" r="9" fill="white"/>
<path d="M12.2206 13.0245C12.3399 13.1438 12.3399 13.2587 12.2206 13.3703C11.7593 13.8316 11.0193 14.0626 9.99992 14.0626C8.98056 14.0626 8.24056 13.8316 7.77863 13.3703C7.65992 13.2587 7.65992 13.1438 7.77863 13.0245C7.80051 13.0024 7.82669 12.9851 7.85554 12.9735C7.88439 12.962 7.91531 12.9565 7.94637 12.9574C8.01347 12.9574 8.06895 12.98 8.11411 13.0245C8.47089 13.389 9.09927 13.5716 9.99992 13.5716C10.8928 13.5716 11.5212 13.389 11.8864 13.0245C11.9082 13.0025 11.9342 12.9852 11.963 12.9737C11.9917 12.9621 12.0225 12.9566 12.0535 12.9574C12.1206 12.9574 12.176 12.98 12.2212 13.0245H12.2206ZM8.79476 11.0045C8.79476 11.28 8.69798 11.5142 8.50444 11.7077C8.31089 11.9013 8.07669 11.998 7.80121 11.998C7.66965 12 7.53905 11.9753 7.4173 11.9254C7.29555 11.8755 7.18517 11.8014 7.09282 11.7077C6.99746 11.6174 6.92189 11.5083 6.87092 11.3872C6.81994 11.2662 6.79467 11.1358 6.79669 11.0045C6.79669 10.7219 6.8954 10.4839 7.09282 10.2903C7.2896 10.0968 7.52573 9.99998 7.80121 9.99998C8.07669 9.99998 8.31089 10.0987 8.50444 10.2955C8.69798 10.4929 8.79476 10.729 8.79476 11.0045ZM13.2031 11.0045C13.2031 11.28 13.1044 11.5142 12.907 11.7077C12.7102 11.9013 12.4741 11.998 12.1986 11.998C11.9231 11.998 11.689 11.9013 11.4954 11.7077C11.3019 11.5142 11.2051 11.28 11.2051 11.0045C11.2051 10.729 11.3019 10.4929 11.4954 10.2955C11.5858 10.2002 11.6949 10.1248 11.816 10.0739C11.9371 10.023 12.0673 9.99787 12.1986 9.99998C12.4741 9.99998 12.7102 10.0968 12.907 10.2903C13.1044 10.4839 13.2031 10.7219 13.2031 11.0045ZM16.0044 9.66514C16.0044 9.30062 15.8741 8.98772 15.6141 8.72772C15.491 8.60116 15.3433 8.50116 15.1801 8.43392C15.0169 8.36667 14.8416 8.33361 14.6651 8.33675C14.4861 8.33459 14.3086 8.36914 14.1434 8.43827C13.9783 8.5074 13.8291 8.60964 13.7051 8.73869C12.738 8.06901 11.5812 7.71224 10.2341 7.66772L10.9373 4.50901L13.1696 5.01095C13.1696 5.28643 13.2664 5.52063 13.4599 5.71417C13.6535 5.90772 13.8877 6.0045 14.1631 6.0045C14.438 6.0045 14.6741 5.90579 14.8715 5.70837C15.069 5.51159 15.1677 5.27546 15.1677 4.99998C15.1677 4.7245 15.069 4.48837 14.8715 4.29159C14.7799 4.19649 14.6698 4.12115 14.548 4.07022C14.4262 4.01929 14.2952 3.99385 14.1631 3.99546C13.7612 3.99546 13.4638 4.18127 13.2702 4.55353L10.8038 4.00643C10.6619 3.96966 10.569 4.02901 10.5244 4.18514L9.75411 7.66708C8.4154 7.71933 7.26573 8.07998 6.30573 8.74966C6.18245 8.61588 6.0321 8.50987 5.86469 8.43868C5.69728 8.36749 5.51663 8.33274 5.33476 8.33675C4.9625 8.33675 4.64637 8.46708 4.38637 8.72772C4.26063 8.84898 4.16106 8.99472 4.09382 9.15595C4.02658 9.31717 3.99308 9.49047 3.9954 9.66514C3.9954 9.92579 4.06444 10.1639 4.20186 10.3793C4.33927 10.5955 4.52379 10.7587 4.75411 10.8703C4.70924 11.0759 4.68695 11.2857 4.68766 11.4961C4.68766 12.5522 5.20831 13.4561 6.2496 14.2077C7.29153 14.9593 8.54508 15.3348 10.0109 15.3348C11.4844 15.3348 12.7419 14.9593 13.7831 14.2077C14.8251 13.4561 15.3457 12.5522 15.3457 11.4955C15.3457 11.2574 15.3199 11.0451 15.2683 10.8593C15.4906 10.7494 15.6775 10.5791 15.8076 10.3679C15.9376 10.1567 16.0056 9.91316 16.0038 9.66514H16.0044ZM19.9999 9.99998C19.9999 11.3542 19.7354 12.649 19.2077 13.8839C18.6786 15.1193 17.969 16.1832 17.076 17.0761C16.1831 17.969 15.1186 18.6793 13.8838 19.2077C12.6569 19.7343 11.3351 20.0039 9.99992 20C8.64573 20 7.35089 19.7355 6.11605 19.2077C4.88056 18.6787 3.81669 17.969 2.92379 17.0761C2.03089 16.1832 1.32057 15.1187 0.792178 13.8839C0.265631 12.6569 -0.00399719 11.3351 -7.99932e-05 9.99998C-7.99932e-05 8.64579 0.264436 7.35095 0.792178 6.11611C1.32121 4.88063 2.03089 3.81675 2.92379 2.92385C3.81669 2.03095 4.88056 1.32063 6.11605 0.792239C7.34298 0.265692 8.66478 -0.00393615 9.99992 -1.89581e-05C11.3541 -1.89581e-05 12.649 0.264497 13.8838 0.792239C15.1193 1.32127 16.1831 2.03095 17.076 2.92385C17.969 3.81675 18.6793 4.88063 19.2077 6.11611C19.7342 7.34304 20.0038 8.66484 19.9999 9.99998V9.99998Z" fill="#FF5700"/>
</svg>
