<svg width="20" height="20" viewBox="0 0 20 20" fill="none" xmlns="http://www.w3.org/2000/svg">
<circle cx="10" cy="10" r="9" fill="white"/>
<path fill-rule="evenodd" clip-rule="evenodd" d="M20 10C20 15.5228 15.5228 20 10 20C4.47715 20 0 15.5228 0 10C0 4.47715 4.47715 0 10 0C15.5228 0 20 4.47715 20 10ZM15.1326 8.44211C15.1326 8.33895 15.1326 8.23579 15.1263 8.13369C15.5891 7.79406 15.9912 7.37875 16.3158 6.90526C15.8813 7.09549 15.4207 7.21967 14.9495 7.27368C15.4443 6.97921 15.8149 6.51439 15.9916 5.96632C15.5368 6.2379 15.0232 6.43579 14.4863 6.53895C14.0526 6.07579 13.4358 5.78947 12.7526 5.78947C12.441 5.7892 12.1324 5.85034 11.8444 5.9694C11.5564 6.08845 11.2948 6.2631 11.0743 6.48335C10.8539 6.7036 10.679 6.96513 10.5597 7.253C10.4404 7.54087 10.3789 7.84944 10.3789 8.16105C10.38 8.34399 10.3997 8.52635 10.4379 8.70526C9.49373 8.65741 8.57017 8.41162 7.72712 7.98383C6.88407 7.55605 6.14035 6.95583 5.54421 6.22211C5.2382 6.74487 5.14383 7.36492 5.28046 7.95506C5.41708 8.5452 5.77434 9.06069 6.27895 9.39579C5.88947 9.38105 5.52211 9.27053 5.20632 9.09474V9.12632C5.20618 9.67446 5.39576 10.2058 5.74287 10.63C6.08997 11.0542 6.57321 11.3453 7.11053 11.4537C6.76002 11.5458 6.39373 11.5609 6.03684 11.4979C6.18908 11.9695 6.48491 12.3817 6.88295 12.6769C7.281 12.9721 7.76136 13.1355 8.25684 13.1442C7.41626 13.8038 6.37795 14.1609 5.30947 14.1579C5.11158 14.1579 4.92737 14.1495 4.73684 14.1284C5.82358 14.8272 7.08905 15.1971 8.38105 15.1937C12.7453 15.1937 15.1326 11.5789 15.1326 8.44211Z" fill="#08A0E9"/>
</svg>
